G04 #@! TF.GenerationSoftware,KiCad,Pcbnew,(5.1.5)-3*
G04 #@! TF.CreationDate,2020-12-06T22:53:45+02:00*
G04 #@! TF.ProjectId,Single_transistor_AMP,53696e67-6c65-45f7-9472-616e73697374,V1.0*
G04 #@! TF.SameCoordinates,Original*
G04 #@! TF.FileFunction,Paste,Top*
G04 #@! TF.FilePolarity,Positive*
%FSLAX46Y46*%
G04 Gerber Fmt 4.6, Leading zero omitted, Abs format (unit mm)*
G04 Created by KiCad (PCBNEW (5.1.5)-3) date 2020-12-06 22:53:45*
%MOMM*%
%LPD*%
G04 APERTURE LIST*
%ADD10C,0.100000*%
G04 APERTURE END LIST*
D10*
G36*
X146046458Y-115438410D02*
G01*
X146060776Y-115440534D01*
X146074817Y-115444051D01*
X146088446Y-115448928D01*
X146101531Y-115455117D01*
X146113947Y-115462558D01*
X146125573Y-115471181D01*
X146136298Y-115480902D01*
X146146019Y-115491627D01*
X146154642Y-115503253D01*
X146162083Y-115515669D01*
X146168272Y-115528754D01*
X146173149Y-115542383D01*
X146176666Y-115556424D01*
X146178790Y-115570742D01*
X146179500Y-115585200D01*
X146179500Y-115880200D01*
X146178790Y-115894658D01*
X146176666Y-115908976D01*
X146173149Y-115923017D01*
X146168272Y-115936646D01*
X146162083Y-115949731D01*
X146154642Y-115962147D01*
X146146019Y-115973773D01*
X146136298Y-115984498D01*
X146125573Y-115994219D01*
X146113947Y-116002842D01*
X146101531Y-116010283D01*
X146088446Y-116016472D01*
X146074817Y-116021349D01*
X146060776Y-116024866D01*
X146046458Y-116026990D01*
X146032000Y-116027700D01*
X145687000Y-116027700D01*
X145672542Y-116026990D01*
X145658224Y-116024866D01*
X145644183Y-116021349D01*
X145630554Y-116016472D01*
X145617469Y-116010283D01*
X145605053Y-116002842D01*
X145593427Y-115994219D01*
X145582702Y-115984498D01*
X145572981Y-115973773D01*
X145564358Y-115962147D01*
X145556917Y-115949731D01*
X145550728Y-115936646D01*
X145545851Y-115923017D01*
X145542334Y-115908976D01*
X145540210Y-115894658D01*
X145539500Y-115880200D01*
X145539500Y-115585200D01*
X145540210Y-115570742D01*
X145542334Y-115556424D01*
X145545851Y-115542383D01*
X145550728Y-115528754D01*
X145556917Y-115515669D01*
X145564358Y-115503253D01*
X145572981Y-115491627D01*
X145582702Y-115480902D01*
X145593427Y-115471181D01*
X145605053Y-115462558D01*
X145617469Y-115455117D01*
X145630554Y-115448928D01*
X145644183Y-115444051D01*
X145658224Y-115440534D01*
X145672542Y-115438410D01*
X145687000Y-115437700D01*
X146032000Y-115437700D01*
X146046458Y-115438410D01*
G37*
G36*
X146046458Y-116408410D02*
G01*
X146060776Y-116410534D01*
X146074817Y-116414051D01*
X146088446Y-116418928D01*
X146101531Y-116425117D01*
X146113947Y-116432558D01*
X146125573Y-116441181D01*
X146136298Y-116450902D01*
X146146019Y-116461627D01*
X146154642Y-116473253D01*
X146162083Y-116485669D01*
X146168272Y-116498754D01*
X146173149Y-116512383D01*
X146176666Y-116526424D01*
X146178790Y-116540742D01*
X146179500Y-116555200D01*
X146179500Y-116850200D01*
X146178790Y-116864658D01*
X146176666Y-116878976D01*
X146173149Y-116893017D01*
X146168272Y-116906646D01*
X146162083Y-116919731D01*
X146154642Y-116932147D01*
X146146019Y-116943773D01*
X146136298Y-116954498D01*
X146125573Y-116964219D01*
X146113947Y-116972842D01*
X146101531Y-116980283D01*
X146088446Y-116986472D01*
X146074817Y-116991349D01*
X146060776Y-116994866D01*
X146046458Y-116996990D01*
X146032000Y-116997700D01*
X145687000Y-116997700D01*
X145672542Y-116996990D01*
X145658224Y-116994866D01*
X145644183Y-116991349D01*
X145630554Y-116986472D01*
X145617469Y-116980283D01*
X145605053Y-116972842D01*
X145593427Y-116964219D01*
X145582702Y-116954498D01*
X145572981Y-116943773D01*
X145564358Y-116932147D01*
X145556917Y-116919731D01*
X145550728Y-116906646D01*
X145545851Y-116893017D01*
X145542334Y-116878976D01*
X145540210Y-116864658D01*
X145539500Y-116850200D01*
X145539500Y-116555200D01*
X145540210Y-116540742D01*
X145542334Y-116526424D01*
X145545851Y-116512383D01*
X145550728Y-116498754D01*
X145556917Y-116485669D01*
X145564358Y-116473253D01*
X145572981Y-116461627D01*
X145582702Y-116450902D01*
X145593427Y-116441181D01*
X145605053Y-116432558D01*
X145617469Y-116425117D01*
X145630554Y-116418928D01*
X145644183Y-116414051D01*
X145658224Y-116410534D01*
X145672542Y-116408410D01*
X145687000Y-116407700D01*
X146032000Y-116407700D01*
X146046458Y-116408410D01*
G37*
G36*
X158924258Y-115582910D02*
G01*
X158938576Y-115585034D01*
X158952617Y-115588551D01*
X158966246Y-115593428D01*
X158979331Y-115599617D01*
X158991747Y-115607058D01*
X159003373Y-115615681D01*
X159014098Y-115625402D01*
X159023819Y-115636127D01*
X159032442Y-115647753D01*
X159039883Y-115660169D01*
X159046072Y-115673254D01*
X159050949Y-115686883D01*
X159054466Y-115700924D01*
X159056590Y-115715242D01*
X159057300Y-115729700D01*
X159057300Y-116024700D01*
X159056590Y-116039158D01*
X159054466Y-116053476D01*
X159050949Y-116067517D01*
X159046072Y-116081146D01*
X159039883Y-116094231D01*
X159032442Y-116106647D01*
X159023819Y-116118273D01*
X159014098Y-116128998D01*
X159003373Y-116138719D01*
X158991747Y-116147342D01*
X158979331Y-116154783D01*
X158966246Y-116160972D01*
X158952617Y-116165849D01*
X158938576Y-116169366D01*
X158924258Y-116171490D01*
X158909800Y-116172200D01*
X158564800Y-116172200D01*
X158550342Y-116171490D01*
X158536024Y-116169366D01*
X158521983Y-116165849D01*
X158508354Y-116160972D01*
X158495269Y-116154783D01*
X158482853Y-116147342D01*
X158471227Y-116138719D01*
X158460502Y-116128998D01*
X158450781Y-116118273D01*
X158442158Y-116106647D01*
X158434717Y-116094231D01*
X158428528Y-116081146D01*
X158423651Y-116067517D01*
X158420134Y-116053476D01*
X158418010Y-116039158D01*
X158417300Y-116024700D01*
X158417300Y-115729700D01*
X158418010Y-115715242D01*
X158420134Y-115700924D01*
X158423651Y-115686883D01*
X158428528Y-115673254D01*
X158434717Y-115660169D01*
X158442158Y-115647753D01*
X158450781Y-115636127D01*
X158460502Y-115625402D01*
X158471227Y-115615681D01*
X158482853Y-115607058D01*
X158495269Y-115599617D01*
X158508354Y-115593428D01*
X158521983Y-115588551D01*
X158536024Y-115585034D01*
X158550342Y-115582910D01*
X158564800Y-115582200D01*
X158909800Y-115582200D01*
X158924258Y-115582910D01*
G37*
G36*
X158924258Y-114612910D02*
G01*
X158938576Y-114615034D01*
X158952617Y-114618551D01*
X158966246Y-114623428D01*
X158979331Y-114629617D01*
X158991747Y-114637058D01*
X159003373Y-114645681D01*
X159014098Y-114655402D01*
X159023819Y-114666127D01*
X159032442Y-114677753D01*
X159039883Y-114690169D01*
X159046072Y-114703254D01*
X159050949Y-114716883D01*
X159054466Y-114730924D01*
X159056590Y-114745242D01*
X159057300Y-114759700D01*
X159057300Y-115054700D01*
X159056590Y-115069158D01*
X159054466Y-115083476D01*
X159050949Y-115097517D01*
X159046072Y-115111146D01*
X159039883Y-115124231D01*
X159032442Y-115136647D01*
X159023819Y-115148273D01*
X159014098Y-115158998D01*
X159003373Y-115168719D01*
X158991747Y-115177342D01*
X158979331Y-115184783D01*
X158966246Y-115190972D01*
X158952617Y-115195849D01*
X158938576Y-115199366D01*
X158924258Y-115201490D01*
X158909800Y-115202200D01*
X158564800Y-115202200D01*
X158550342Y-115201490D01*
X158536024Y-115199366D01*
X158521983Y-115195849D01*
X158508354Y-115190972D01*
X158495269Y-115184783D01*
X158482853Y-115177342D01*
X158471227Y-115168719D01*
X158460502Y-115158998D01*
X158450781Y-115148273D01*
X158442158Y-115136647D01*
X158434717Y-115124231D01*
X158428528Y-115111146D01*
X158423651Y-115097517D01*
X158420134Y-115083476D01*
X158418010Y-115069158D01*
X158417300Y-115054700D01*
X158417300Y-114759700D01*
X158418010Y-114745242D01*
X158420134Y-114730924D01*
X158423651Y-114716883D01*
X158428528Y-114703254D01*
X158434717Y-114690169D01*
X158442158Y-114677753D01*
X158450781Y-114666127D01*
X158460502Y-114655402D01*
X158471227Y-114645681D01*
X158482853Y-114637058D01*
X158495269Y-114629617D01*
X158508354Y-114623428D01*
X158521983Y-114618551D01*
X158536024Y-114615034D01*
X158550342Y-114612910D01*
X158564800Y-114612200D01*
X158909800Y-114612200D01*
X158924258Y-114612910D01*
G37*
G36*
X149594958Y-116215910D02*
G01*
X149609276Y-116218034D01*
X149623317Y-116221551D01*
X149636946Y-116226428D01*
X149650031Y-116232617D01*
X149662447Y-116240058D01*
X149674073Y-116248681D01*
X149684798Y-116258402D01*
X149694519Y-116269127D01*
X149703142Y-116280753D01*
X149710583Y-116293169D01*
X149716772Y-116306254D01*
X149721649Y-116319883D01*
X149725166Y-116333924D01*
X149727290Y-116348242D01*
X149728000Y-116362700D01*
X149728000Y-116707700D01*
X149727290Y-116722158D01*
X149725166Y-116736476D01*
X149721649Y-116750517D01*
X149716772Y-116764146D01*
X149710583Y-116777231D01*
X149703142Y-116789647D01*
X149694519Y-116801273D01*
X149684798Y-116811998D01*
X149674073Y-116821719D01*
X149662447Y-116830342D01*
X149650031Y-116837783D01*
X149636946Y-116843972D01*
X149623317Y-116848849D01*
X149609276Y-116852366D01*
X149594958Y-116854490D01*
X149580500Y-116855200D01*
X149285500Y-116855200D01*
X149271042Y-116854490D01*
X149256724Y-116852366D01*
X149242683Y-116848849D01*
X149229054Y-116843972D01*
X149215969Y-116837783D01*
X149203553Y-116830342D01*
X149191927Y-116821719D01*
X149181202Y-116811998D01*
X149171481Y-116801273D01*
X149162858Y-116789647D01*
X149155417Y-116777231D01*
X149149228Y-116764146D01*
X149144351Y-116750517D01*
X149140834Y-116736476D01*
X149138710Y-116722158D01*
X149138000Y-116707700D01*
X149138000Y-116362700D01*
X149138710Y-116348242D01*
X149140834Y-116333924D01*
X149144351Y-116319883D01*
X149149228Y-116306254D01*
X149155417Y-116293169D01*
X149162858Y-116280753D01*
X149171481Y-116269127D01*
X149181202Y-116258402D01*
X149191927Y-116248681D01*
X149203553Y-116240058D01*
X149215969Y-116232617D01*
X149229054Y-116226428D01*
X149242683Y-116221551D01*
X149256724Y-116218034D01*
X149271042Y-116215910D01*
X149285500Y-116215200D01*
X149580500Y-116215200D01*
X149594958Y-116215910D01*
G37*
G36*
X148624958Y-116215910D02*
G01*
X148639276Y-116218034D01*
X148653317Y-116221551D01*
X148666946Y-116226428D01*
X148680031Y-116232617D01*
X148692447Y-116240058D01*
X148704073Y-116248681D01*
X148714798Y-116258402D01*
X148724519Y-116269127D01*
X148733142Y-116280753D01*
X148740583Y-116293169D01*
X148746772Y-116306254D01*
X148751649Y-116319883D01*
X148755166Y-116333924D01*
X148757290Y-116348242D01*
X148758000Y-116362700D01*
X148758000Y-116707700D01*
X148757290Y-116722158D01*
X148755166Y-116736476D01*
X148751649Y-116750517D01*
X148746772Y-116764146D01*
X148740583Y-116777231D01*
X148733142Y-116789647D01*
X148724519Y-116801273D01*
X148714798Y-116811998D01*
X148704073Y-116821719D01*
X148692447Y-116830342D01*
X148680031Y-116837783D01*
X148666946Y-116843972D01*
X148653317Y-116848849D01*
X148639276Y-116852366D01*
X148624958Y-116854490D01*
X148610500Y-116855200D01*
X148315500Y-116855200D01*
X148301042Y-116854490D01*
X148286724Y-116852366D01*
X148272683Y-116848849D01*
X148259054Y-116843972D01*
X148245969Y-116837783D01*
X148233553Y-116830342D01*
X148221927Y-116821719D01*
X148211202Y-116811998D01*
X148201481Y-116801273D01*
X148192858Y-116789647D01*
X148185417Y-116777231D01*
X148179228Y-116764146D01*
X148174351Y-116750517D01*
X148170834Y-116736476D01*
X148168710Y-116722158D01*
X148168000Y-116707700D01*
X148168000Y-116362700D01*
X148168710Y-116348242D01*
X148170834Y-116333924D01*
X148174351Y-116319883D01*
X148179228Y-116306254D01*
X148185417Y-116293169D01*
X148192858Y-116280753D01*
X148201481Y-116269127D01*
X148211202Y-116258402D01*
X148221927Y-116248681D01*
X148233553Y-116240058D01*
X148245969Y-116232617D01*
X148259054Y-116226428D01*
X148272683Y-116221551D01*
X148286724Y-116218034D01*
X148301042Y-116215910D01*
X148315500Y-116215200D01*
X148610500Y-116215200D01*
X148624958Y-116215910D01*
G37*
G36*
X149579858Y-113752110D02*
G01*
X149594176Y-113754234D01*
X149608217Y-113757751D01*
X149621846Y-113762628D01*
X149634931Y-113768817D01*
X149647347Y-113776258D01*
X149658973Y-113784881D01*
X149669698Y-113794602D01*
X149679419Y-113805327D01*
X149688042Y-113816953D01*
X149695483Y-113829369D01*
X149701672Y-113842454D01*
X149706549Y-113856083D01*
X149710066Y-113870124D01*
X149712190Y-113884442D01*
X149712900Y-113898900D01*
X149712900Y-114243900D01*
X149712190Y-114258358D01*
X149710066Y-114272676D01*
X149706549Y-114286717D01*
X149701672Y-114300346D01*
X149695483Y-114313431D01*
X149688042Y-114325847D01*
X149679419Y-114337473D01*
X149669698Y-114348198D01*
X149658973Y-114357919D01*
X149647347Y-114366542D01*
X149634931Y-114373983D01*
X149621846Y-114380172D01*
X149608217Y-114385049D01*
X149594176Y-114388566D01*
X149579858Y-114390690D01*
X149565400Y-114391400D01*
X149270400Y-114391400D01*
X149255942Y-114390690D01*
X149241624Y-114388566D01*
X149227583Y-114385049D01*
X149213954Y-114380172D01*
X149200869Y-114373983D01*
X149188453Y-114366542D01*
X149176827Y-114357919D01*
X149166102Y-114348198D01*
X149156381Y-114337473D01*
X149147758Y-114325847D01*
X149140317Y-114313431D01*
X149134128Y-114300346D01*
X149129251Y-114286717D01*
X149125734Y-114272676D01*
X149123610Y-114258358D01*
X149122900Y-114243900D01*
X149122900Y-113898900D01*
X149123610Y-113884442D01*
X149125734Y-113870124D01*
X149129251Y-113856083D01*
X149134128Y-113842454D01*
X149140317Y-113829369D01*
X149147758Y-113816953D01*
X149156381Y-113805327D01*
X149166102Y-113794602D01*
X149176827Y-113784881D01*
X149188453Y-113776258D01*
X149200869Y-113768817D01*
X149213954Y-113762628D01*
X149227583Y-113757751D01*
X149241624Y-113754234D01*
X149255942Y-113752110D01*
X149270400Y-113751400D01*
X149565400Y-113751400D01*
X149579858Y-113752110D01*
G37*
G36*
X148609858Y-113752110D02*
G01*
X148624176Y-113754234D01*
X148638217Y-113757751D01*
X148651846Y-113762628D01*
X148664931Y-113768817D01*
X148677347Y-113776258D01*
X148688973Y-113784881D01*
X148699698Y-113794602D01*
X148709419Y-113805327D01*
X148718042Y-113816953D01*
X148725483Y-113829369D01*
X148731672Y-113842454D01*
X148736549Y-113856083D01*
X148740066Y-113870124D01*
X148742190Y-113884442D01*
X148742900Y-113898900D01*
X148742900Y-114243900D01*
X148742190Y-114258358D01*
X148740066Y-114272676D01*
X148736549Y-114286717D01*
X148731672Y-114300346D01*
X148725483Y-114313431D01*
X148718042Y-114325847D01*
X148709419Y-114337473D01*
X148699698Y-114348198D01*
X148688973Y-114357919D01*
X148677347Y-114366542D01*
X148664931Y-114373983D01*
X148651846Y-114380172D01*
X148638217Y-114385049D01*
X148624176Y-114388566D01*
X148609858Y-114390690D01*
X148595400Y-114391400D01*
X148300400Y-114391400D01*
X148285942Y-114390690D01*
X148271624Y-114388566D01*
X148257583Y-114385049D01*
X148243954Y-114380172D01*
X148230869Y-114373983D01*
X148218453Y-114366542D01*
X148206827Y-114357919D01*
X148196102Y-114348198D01*
X148186381Y-114337473D01*
X148177758Y-114325847D01*
X148170317Y-114313431D01*
X148164128Y-114300346D01*
X148159251Y-114286717D01*
X148155734Y-114272676D01*
X148153610Y-114258358D01*
X148152900Y-114243900D01*
X148152900Y-113898900D01*
X148153610Y-113884442D01*
X148155734Y-113870124D01*
X148159251Y-113856083D01*
X148164128Y-113842454D01*
X148170317Y-113829369D01*
X148177758Y-113816953D01*
X148186381Y-113805327D01*
X148196102Y-113794602D01*
X148206827Y-113784881D01*
X148218453Y-113776258D01*
X148230869Y-113768817D01*
X148243954Y-113762628D01*
X148257583Y-113757751D01*
X148271624Y-113754234D01*
X148285942Y-113752110D01*
X148300400Y-113751400D01*
X148595400Y-113751400D01*
X148609858Y-113752110D01*
G37*
G36*
X158949658Y-112471410D02*
G01*
X158963976Y-112473534D01*
X158978017Y-112477051D01*
X158991646Y-112481928D01*
X159004731Y-112488117D01*
X159017147Y-112495558D01*
X159028773Y-112504181D01*
X159039498Y-112513902D01*
X159049219Y-112524627D01*
X159057842Y-112536253D01*
X159065283Y-112548669D01*
X159071472Y-112561754D01*
X159076349Y-112575383D01*
X159079866Y-112589424D01*
X159081990Y-112603742D01*
X159082700Y-112618200D01*
X159082700Y-112913200D01*
X159081990Y-112927658D01*
X159079866Y-112941976D01*
X159076349Y-112956017D01*
X159071472Y-112969646D01*
X159065283Y-112982731D01*
X159057842Y-112995147D01*
X159049219Y-113006773D01*
X159039498Y-113017498D01*
X159028773Y-113027219D01*
X159017147Y-113035842D01*
X159004731Y-113043283D01*
X158991646Y-113049472D01*
X158978017Y-113054349D01*
X158963976Y-113057866D01*
X158949658Y-113059990D01*
X158935200Y-113060700D01*
X158590200Y-113060700D01*
X158575742Y-113059990D01*
X158561424Y-113057866D01*
X158547383Y-113054349D01*
X158533754Y-113049472D01*
X158520669Y-113043283D01*
X158508253Y-113035842D01*
X158496627Y-113027219D01*
X158485902Y-113017498D01*
X158476181Y-113006773D01*
X158467558Y-112995147D01*
X158460117Y-112982731D01*
X158453928Y-112969646D01*
X158449051Y-112956017D01*
X158445534Y-112941976D01*
X158443410Y-112927658D01*
X158442700Y-112913200D01*
X158442700Y-112618200D01*
X158443410Y-112603742D01*
X158445534Y-112589424D01*
X158449051Y-112575383D01*
X158453928Y-112561754D01*
X158460117Y-112548669D01*
X158467558Y-112536253D01*
X158476181Y-112524627D01*
X158485902Y-112513902D01*
X158496627Y-112504181D01*
X158508253Y-112495558D01*
X158520669Y-112488117D01*
X158533754Y-112481928D01*
X158547383Y-112477051D01*
X158561424Y-112473534D01*
X158575742Y-112471410D01*
X158590200Y-112470700D01*
X158935200Y-112470700D01*
X158949658Y-112471410D01*
G37*
G36*
X158949658Y-111501410D02*
G01*
X158963976Y-111503534D01*
X158978017Y-111507051D01*
X158991646Y-111511928D01*
X159004731Y-111518117D01*
X159017147Y-111525558D01*
X159028773Y-111534181D01*
X159039498Y-111543902D01*
X159049219Y-111554627D01*
X159057842Y-111566253D01*
X159065283Y-111578669D01*
X159071472Y-111591754D01*
X159076349Y-111605383D01*
X159079866Y-111619424D01*
X159081990Y-111633742D01*
X159082700Y-111648200D01*
X159082700Y-111943200D01*
X159081990Y-111957658D01*
X159079866Y-111971976D01*
X159076349Y-111986017D01*
X159071472Y-111999646D01*
X159065283Y-112012731D01*
X159057842Y-112025147D01*
X159049219Y-112036773D01*
X159039498Y-112047498D01*
X159028773Y-112057219D01*
X159017147Y-112065842D01*
X159004731Y-112073283D01*
X158991646Y-112079472D01*
X158978017Y-112084349D01*
X158963976Y-112087866D01*
X158949658Y-112089990D01*
X158935200Y-112090700D01*
X158590200Y-112090700D01*
X158575742Y-112089990D01*
X158561424Y-112087866D01*
X158547383Y-112084349D01*
X158533754Y-112079472D01*
X158520669Y-112073283D01*
X158508253Y-112065842D01*
X158496627Y-112057219D01*
X158485902Y-112047498D01*
X158476181Y-112036773D01*
X158467558Y-112025147D01*
X158460117Y-112012731D01*
X158453928Y-111999646D01*
X158449051Y-111986017D01*
X158445534Y-111971976D01*
X158443410Y-111957658D01*
X158442700Y-111943200D01*
X158442700Y-111648200D01*
X158443410Y-111633742D01*
X158445534Y-111619424D01*
X158449051Y-111605383D01*
X158453928Y-111591754D01*
X158460117Y-111578669D01*
X158467558Y-111566253D01*
X158476181Y-111554627D01*
X158485902Y-111543902D01*
X158496627Y-111534181D01*
X158508253Y-111525558D01*
X158520669Y-111518117D01*
X158533754Y-111511928D01*
X158547383Y-111507051D01*
X158561424Y-111503534D01*
X158575742Y-111501410D01*
X158590200Y-111500700D01*
X158935200Y-111500700D01*
X158949658Y-111501410D01*
G37*
G36*
X146033758Y-113601710D02*
G01*
X146048076Y-113603834D01*
X146062117Y-113607351D01*
X146075746Y-113612228D01*
X146088831Y-113618417D01*
X146101247Y-113625858D01*
X146112873Y-113634481D01*
X146123598Y-113644202D01*
X146133319Y-113654927D01*
X146141942Y-113666553D01*
X146149383Y-113678969D01*
X146155572Y-113692054D01*
X146160449Y-113705683D01*
X146163966Y-113719724D01*
X146166090Y-113734042D01*
X146166800Y-113748500D01*
X146166800Y-114043500D01*
X146166090Y-114057958D01*
X146163966Y-114072276D01*
X146160449Y-114086317D01*
X146155572Y-114099946D01*
X146149383Y-114113031D01*
X146141942Y-114125447D01*
X146133319Y-114137073D01*
X146123598Y-114147798D01*
X146112873Y-114157519D01*
X146101247Y-114166142D01*
X146088831Y-114173583D01*
X146075746Y-114179772D01*
X146062117Y-114184649D01*
X146048076Y-114188166D01*
X146033758Y-114190290D01*
X146019300Y-114191000D01*
X145674300Y-114191000D01*
X145659842Y-114190290D01*
X145645524Y-114188166D01*
X145631483Y-114184649D01*
X145617854Y-114179772D01*
X145604769Y-114173583D01*
X145592353Y-114166142D01*
X145580727Y-114157519D01*
X145570002Y-114147798D01*
X145560281Y-114137073D01*
X145551658Y-114125447D01*
X145544217Y-114113031D01*
X145538028Y-114099946D01*
X145533151Y-114086317D01*
X145529634Y-114072276D01*
X145527510Y-114057958D01*
X145526800Y-114043500D01*
X145526800Y-113748500D01*
X145527510Y-113734042D01*
X145529634Y-113719724D01*
X145533151Y-113705683D01*
X145538028Y-113692054D01*
X145544217Y-113678969D01*
X145551658Y-113666553D01*
X145560281Y-113654927D01*
X145570002Y-113644202D01*
X145580727Y-113634481D01*
X145592353Y-113625858D01*
X145604769Y-113618417D01*
X145617854Y-113612228D01*
X145631483Y-113607351D01*
X145645524Y-113603834D01*
X145659842Y-113601710D01*
X145674300Y-113601000D01*
X146019300Y-113601000D01*
X146033758Y-113601710D01*
G37*
G36*
X146033758Y-112631710D02*
G01*
X146048076Y-112633834D01*
X146062117Y-112637351D01*
X146075746Y-112642228D01*
X146088831Y-112648417D01*
X146101247Y-112655858D01*
X146112873Y-112664481D01*
X146123598Y-112674202D01*
X146133319Y-112684927D01*
X146141942Y-112696553D01*
X146149383Y-112708969D01*
X146155572Y-112722054D01*
X146160449Y-112735683D01*
X146163966Y-112749724D01*
X146166090Y-112764042D01*
X146166800Y-112778500D01*
X146166800Y-113073500D01*
X146166090Y-113087958D01*
X146163966Y-113102276D01*
X146160449Y-113116317D01*
X146155572Y-113129946D01*
X146149383Y-113143031D01*
X146141942Y-113155447D01*
X146133319Y-113167073D01*
X146123598Y-113177798D01*
X146112873Y-113187519D01*
X146101247Y-113196142D01*
X146088831Y-113203583D01*
X146075746Y-113209772D01*
X146062117Y-113214649D01*
X146048076Y-113218166D01*
X146033758Y-113220290D01*
X146019300Y-113221000D01*
X145674300Y-113221000D01*
X145659842Y-113220290D01*
X145645524Y-113218166D01*
X145631483Y-113214649D01*
X145617854Y-113209772D01*
X145604769Y-113203583D01*
X145592353Y-113196142D01*
X145580727Y-113187519D01*
X145570002Y-113177798D01*
X145560281Y-113167073D01*
X145551658Y-113155447D01*
X145544217Y-113143031D01*
X145538028Y-113129946D01*
X145533151Y-113116317D01*
X145529634Y-113102276D01*
X145527510Y-113087958D01*
X145526800Y-113073500D01*
X145526800Y-112778500D01*
X145527510Y-112764042D01*
X145529634Y-112749724D01*
X145533151Y-112735683D01*
X145538028Y-112722054D01*
X145544217Y-112708969D01*
X145551658Y-112696553D01*
X145560281Y-112684927D01*
X145570002Y-112674202D01*
X145580727Y-112664481D01*
X145592353Y-112655858D01*
X145604769Y-112648417D01*
X145617854Y-112642228D01*
X145631483Y-112637351D01*
X145645524Y-112633834D01*
X145659842Y-112631710D01*
X145674300Y-112631000D01*
X146019300Y-112631000D01*
X146033758Y-112631710D01*
G37*
G36*
X143252458Y-115489210D02*
G01*
X143266776Y-115491334D01*
X143280817Y-115494851D01*
X143294446Y-115499728D01*
X143307531Y-115505917D01*
X143319947Y-115513358D01*
X143331573Y-115521981D01*
X143342298Y-115531702D01*
X143352019Y-115542427D01*
X143360642Y-115554053D01*
X143368083Y-115566469D01*
X143374272Y-115579554D01*
X143379149Y-115593183D01*
X143382666Y-115607224D01*
X143384790Y-115621542D01*
X143385500Y-115636000D01*
X143385500Y-115931000D01*
X143384790Y-115945458D01*
X143382666Y-115959776D01*
X143379149Y-115973817D01*
X143374272Y-115987446D01*
X143368083Y-116000531D01*
X143360642Y-116012947D01*
X143352019Y-116024573D01*
X143342298Y-116035298D01*
X143331573Y-116045019D01*
X143319947Y-116053642D01*
X143307531Y-116061083D01*
X143294446Y-116067272D01*
X143280817Y-116072149D01*
X143266776Y-116075666D01*
X143252458Y-116077790D01*
X143238000Y-116078500D01*
X142893000Y-116078500D01*
X142878542Y-116077790D01*
X142864224Y-116075666D01*
X142850183Y-116072149D01*
X142836554Y-116067272D01*
X142823469Y-116061083D01*
X142811053Y-116053642D01*
X142799427Y-116045019D01*
X142788702Y-116035298D01*
X142778981Y-116024573D01*
X142770358Y-116012947D01*
X142762917Y-116000531D01*
X142756728Y-115987446D01*
X142751851Y-115973817D01*
X142748334Y-115959776D01*
X142746210Y-115945458D01*
X142745500Y-115931000D01*
X142745500Y-115636000D01*
X142746210Y-115621542D01*
X142748334Y-115607224D01*
X142751851Y-115593183D01*
X142756728Y-115579554D01*
X142762917Y-115566469D01*
X142770358Y-115554053D01*
X142778981Y-115542427D01*
X142788702Y-115531702D01*
X142799427Y-115521981D01*
X142811053Y-115513358D01*
X142823469Y-115505917D01*
X142836554Y-115499728D01*
X142850183Y-115494851D01*
X142864224Y-115491334D01*
X142878542Y-115489210D01*
X142893000Y-115488500D01*
X143238000Y-115488500D01*
X143252458Y-115489210D01*
G37*
G36*
X143252458Y-116459210D02*
G01*
X143266776Y-116461334D01*
X143280817Y-116464851D01*
X143294446Y-116469728D01*
X143307531Y-116475917D01*
X143319947Y-116483358D01*
X143331573Y-116491981D01*
X143342298Y-116501702D01*
X143352019Y-116512427D01*
X143360642Y-116524053D01*
X143368083Y-116536469D01*
X143374272Y-116549554D01*
X143379149Y-116563183D01*
X143382666Y-116577224D01*
X143384790Y-116591542D01*
X143385500Y-116606000D01*
X143385500Y-116901000D01*
X143384790Y-116915458D01*
X143382666Y-116929776D01*
X143379149Y-116943817D01*
X143374272Y-116957446D01*
X143368083Y-116970531D01*
X143360642Y-116982947D01*
X143352019Y-116994573D01*
X143342298Y-117005298D01*
X143331573Y-117015019D01*
X143319947Y-117023642D01*
X143307531Y-117031083D01*
X143294446Y-117037272D01*
X143280817Y-117042149D01*
X143266776Y-117045666D01*
X143252458Y-117047790D01*
X143238000Y-117048500D01*
X142893000Y-117048500D01*
X142878542Y-117047790D01*
X142864224Y-117045666D01*
X142850183Y-117042149D01*
X142836554Y-117037272D01*
X142823469Y-117031083D01*
X142811053Y-117023642D01*
X142799427Y-117015019D01*
X142788702Y-117005298D01*
X142778981Y-116994573D01*
X142770358Y-116982947D01*
X142762917Y-116970531D01*
X142756728Y-116957446D01*
X142751851Y-116943817D01*
X142748334Y-116929776D01*
X142746210Y-116915458D01*
X142745500Y-116901000D01*
X142745500Y-116606000D01*
X142746210Y-116591542D01*
X142748334Y-116577224D01*
X142751851Y-116563183D01*
X142756728Y-116549554D01*
X142762917Y-116536469D01*
X142770358Y-116524053D01*
X142778981Y-116512427D01*
X142788702Y-116501702D01*
X142799427Y-116491981D01*
X142811053Y-116483358D01*
X142823469Y-116475917D01*
X142836554Y-116469728D01*
X142850183Y-116464851D01*
X142864224Y-116461334D01*
X142878542Y-116459210D01*
X142893000Y-116458500D01*
X143238000Y-116458500D01*
X143252458Y-116459210D01*
G37*
G36*
X143239758Y-113639810D02*
G01*
X143254076Y-113641934D01*
X143268117Y-113645451D01*
X143281746Y-113650328D01*
X143294831Y-113656517D01*
X143307247Y-113663958D01*
X143318873Y-113672581D01*
X143329598Y-113682302D01*
X143339319Y-113693027D01*
X143347942Y-113704653D01*
X143355383Y-113717069D01*
X143361572Y-113730154D01*
X143366449Y-113743783D01*
X143369966Y-113757824D01*
X143372090Y-113772142D01*
X143372800Y-113786600D01*
X143372800Y-114081600D01*
X143372090Y-114096058D01*
X143369966Y-114110376D01*
X143366449Y-114124417D01*
X143361572Y-114138046D01*
X143355383Y-114151131D01*
X143347942Y-114163547D01*
X143339319Y-114175173D01*
X143329598Y-114185898D01*
X143318873Y-114195619D01*
X143307247Y-114204242D01*
X143294831Y-114211683D01*
X143281746Y-114217872D01*
X143268117Y-114222749D01*
X143254076Y-114226266D01*
X143239758Y-114228390D01*
X143225300Y-114229100D01*
X142880300Y-114229100D01*
X142865842Y-114228390D01*
X142851524Y-114226266D01*
X142837483Y-114222749D01*
X142823854Y-114217872D01*
X142810769Y-114211683D01*
X142798353Y-114204242D01*
X142786727Y-114195619D01*
X142776002Y-114185898D01*
X142766281Y-114175173D01*
X142757658Y-114163547D01*
X142750217Y-114151131D01*
X142744028Y-114138046D01*
X142739151Y-114124417D01*
X142735634Y-114110376D01*
X142733510Y-114096058D01*
X142732800Y-114081600D01*
X142732800Y-113786600D01*
X142733510Y-113772142D01*
X142735634Y-113757824D01*
X142739151Y-113743783D01*
X142744028Y-113730154D01*
X142750217Y-113717069D01*
X142757658Y-113704653D01*
X142766281Y-113693027D01*
X142776002Y-113682302D01*
X142786727Y-113672581D01*
X142798353Y-113663958D01*
X142810769Y-113656517D01*
X142823854Y-113650328D01*
X142837483Y-113645451D01*
X142851524Y-113641934D01*
X142865842Y-113639810D01*
X142880300Y-113639100D01*
X143225300Y-113639100D01*
X143239758Y-113639810D01*
G37*
G36*
X143239758Y-112669810D02*
G01*
X143254076Y-112671934D01*
X143268117Y-112675451D01*
X143281746Y-112680328D01*
X143294831Y-112686517D01*
X143307247Y-112693958D01*
X143318873Y-112702581D01*
X143329598Y-112712302D01*
X143339319Y-112723027D01*
X143347942Y-112734653D01*
X143355383Y-112747069D01*
X143361572Y-112760154D01*
X143366449Y-112773783D01*
X143369966Y-112787824D01*
X143372090Y-112802142D01*
X143372800Y-112816600D01*
X143372800Y-113111600D01*
X143372090Y-113126058D01*
X143369966Y-113140376D01*
X143366449Y-113154417D01*
X143361572Y-113168046D01*
X143355383Y-113181131D01*
X143347942Y-113193547D01*
X143339319Y-113205173D01*
X143329598Y-113215898D01*
X143318873Y-113225619D01*
X143307247Y-113234242D01*
X143294831Y-113241683D01*
X143281746Y-113247872D01*
X143268117Y-113252749D01*
X143254076Y-113256266D01*
X143239758Y-113258390D01*
X143225300Y-113259100D01*
X142880300Y-113259100D01*
X142865842Y-113258390D01*
X142851524Y-113256266D01*
X142837483Y-113252749D01*
X142823854Y-113247872D01*
X142810769Y-113241683D01*
X142798353Y-113234242D01*
X142786727Y-113225619D01*
X142776002Y-113215898D01*
X142766281Y-113205173D01*
X142757658Y-113193547D01*
X142750217Y-113181131D01*
X142744028Y-113168046D01*
X142739151Y-113154417D01*
X142735634Y-113140376D01*
X142733510Y-113126058D01*
X142732800Y-113111600D01*
X142732800Y-112816600D01*
X142733510Y-112802142D01*
X142735634Y-112787824D01*
X142739151Y-112773783D01*
X142744028Y-112760154D01*
X142750217Y-112747069D01*
X142757658Y-112734653D01*
X142766281Y-112723027D01*
X142776002Y-112712302D01*
X142786727Y-112702581D01*
X142798353Y-112693958D01*
X142810769Y-112686517D01*
X142823854Y-112680328D01*
X142837483Y-112675451D01*
X142851524Y-112671934D01*
X142865842Y-112669810D01*
X142880300Y-112669100D01*
X143225300Y-112669100D01*
X143239758Y-112669810D01*
G37*
M02*
