G04 #@! TF.GenerationSoftware,KiCad,Pcbnew,(5.1.5)-3*
G04 #@! TF.CreationDate,2020-12-06T22:53:45+02:00*
G04 #@! TF.ProjectId,Single_transistor_AMP,53696e67-6c65-45f7-9472-616e73697374,V1.0*
G04 #@! TF.SameCoordinates,Original*
G04 #@! TF.FileFunction,Legend,Top*
G04 #@! TF.FilePolarity,Positive*
%FSLAX46Y46*%
G04 Gerber Fmt 4.6, Leading zero omitted, Abs format (unit mm)*
G04 Created by KiCad (PCBNEW (5.1.5)-3) date 2020-12-06 22:53:45*
%MOMM*%
%LPD*%
G04 APERTURE LIST*
%ADD10C,0.120000*%
%ADD11C,0.150000*%
G04 APERTURE END LIST*
D10*
X156397478Y-112245622D02*
G75*
G03X151959000Y-114084100I-1838478J-1838478D01*
G01*
X156397478Y-115922578D02*
G75*
G02X151959000Y-114084100I-1838478J1838478D01*
G01*
X156409000Y-115884100D02*
X156409000Y-112284100D01*
X139557278Y-112474222D02*
G75*
G03X135118800Y-114312700I-1838478J-1838478D01*
G01*
X139557278Y-116151178D02*
G75*
G02X135118800Y-114312700I-1838478J1838478D01*
G01*
X139568800Y-116112700D02*
X139568800Y-112512700D01*
X159177000Y-100259100D02*
X157177000Y-100259100D01*
X159177000Y-102499100D02*
X159177000Y-100259100D01*
X152437000Y-103583100D02*
X152531000Y-103490100D01*
X150187000Y-105834100D02*
X150246000Y-105775100D01*
X152267000Y-103343100D02*
X152326000Y-103285100D01*
X149982000Y-105628100D02*
X150076000Y-105535100D01*
X148657000Y-108619100D02*
X148657000Y-100499100D01*
X158937000Y-108619100D02*
X158937000Y-100499100D01*
X158937000Y-100499100D02*
X148657000Y-100499100D01*
X158937000Y-108619100D02*
X148657000Y-108619100D01*
X158937000Y-106559100D02*
X148657000Y-106559100D01*
X158937000Y-102559100D02*
X148657000Y-102559100D01*
X152937000Y-104559100D02*
G75*
G03X152937000Y-104559100I-1680000J0D01*
G01*
X156307617Y-102878650D02*
G75*
G02X157126000Y-103075100I29383J-1680450D01*
G01*
X157820953Y-103770012D02*
G75*
G02X157821000Y-105348100I-1483953J-789088D01*
G01*
X157126088Y-106043053D02*
G75*
G02X155548000Y-106043100I-789088J1483953D01*
G01*
X154853047Y-105348188D02*
G75*
G02X154853000Y-103770100I1483953J789088D01*
G01*
X155548288Y-103075748D02*
G75*
G02X156337000Y-102879100I788712J-1483352D01*
G01*
X145613400Y-100259100D02*
X143613400Y-100259100D01*
X145613400Y-102499100D02*
X145613400Y-100259100D01*
X138873400Y-103583100D02*
X138967400Y-103490100D01*
X136623400Y-105834100D02*
X136682400Y-105775100D01*
X138703400Y-103343100D02*
X138762400Y-103285100D01*
X136418400Y-105628100D02*
X136512400Y-105535100D01*
X135093400Y-108619100D02*
X135093400Y-100499100D01*
X145373400Y-108619100D02*
X145373400Y-100499100D01*
X145373400Y-100499100D02*
X135093400Y-100499100D01*
X145373400Y-108619100D02*
X135093400Y-108619100D01*
X145373400Y-106559100D02*
X135093400Y-106559100D01*
X145373400Y-102559100D02*
X135093400Y-102559100D01*
X139373400Y-104559100D02*
G75*
G03X139373400Y-104559100I-1680000J0D01*
G01*
X142744017Y-102878650D02*
G75*
G02X143562400Y-103075100I29383J-1680450D01*
G01*
X144257353Y-103770012D02*
G75*
G02X144257400Y-105348100I-1483953J-789088D01*
G01*
X143562488Y-106043053D02*
G75*
G02X141984400Y-106043100I-789088J1483953D01*
G01*
X141289447Y-105348188D02*
G75*
G02X141289400Y-103770100I1483953J789088D01*
G01*
X141984688Y-103075748D02*
G75*
G02X142773400Y-102879100I788712J-1483352D01*
G01*
D11*
X145141880Y-116384366D02*
X144665690Y-116717700D01*
X145141880Y-116955795D02*
X144141880Y-116955795D01*
X144141880Y-116574842D01*
X144189500Y-116479604D01*
X144237119Y-116431985D01*
X144332357Y-116384366D01*
X144475214Y-116384366D01*
X144570452Y-116431985D01*
X144618071Y-116479604D01*
X144665690Y-116574842D01*
X144665690Y-116955795D01*
X144475214Y-115527223D02*
X145141880Y-115527223D01*
X144094261Y-115765319D02*
X144808547Y-116003414D01*
X144808547Y-115384366D01*
X160359680Y-115558866D02*
X159883490Y-115892200D01*
X160359680Y-116130295D02*
X159359680Y-116130295D01*
X159359680Y-115749342D01*
X159407300Y-115654104D01*
X159454919Y-115606485D01*
X159550157Y-115558866D01*
X159693014Y-115558866D01*
X159788252Y-115606485D01*
X159835871Y-115654104D01*
X159883490Y-115749342D01*
X159883490Y-116130295D01*
X159359680Y-115225533D02*
X159359680Y-114606485D01*
X159740633Y-114939819D01*
X159740633Y-114796961D01*
X159788252Y-114701723D01*
X159835871Y-114654104D01*
X159931109Y-114606485D01*
X160169204Y-114606485D01*
X160264442Y-114654104D01*
X160312061Y-114701723D01*
X160359680Y-114796961D01*
X160359680Y-115082676D01*
X160312061Y-115177914D01*
X160264442Y-115225533D01*
X148781333Y-115817580D02*
X148448000Y-115341390D01*
X148209904Y-115817580D02*
X148209904Y-114817580D01*
X148590857Y-114817580D01*
X148686095Y-114865200D01*
X148733714Y-114912819D01*
X148781333Y-115008057D01*
X148781333Y-115150914D01*
X148733714Y-115246152D01*
X148686095Y-115293771D01*
X148590857Y-115341390D01*
X148209904Y-115341390D01*
X149162285Y-114912819D02*
X149209904Y-114865200D01*
X149305142Y-114817580D01*
X149543238Y-114817580D01*
X149638476Y-114865200D01*
X149686095Y-114912819D01*
X149733714Y-115008057D01*
X149733714Y-115103295D01*
X149686095Y-115246152D01*
X149114666Y-115817580D01*
X149733714Y-115817580D01*
X148766233Y-113353780D02*
X148432900Y-112877590D01*
X148194804Y-113353780D02*
X148194804Y-112353780D01*
X148575757Y-112353780D01*
X148670995Y-112401400D01*
X148718614Y-112449019D01*
X148766233Y-112544257D01*
X148766233Y-112687114D01*
X148718614Y-112782352D01*
X148670995Y-112829971D01*
X148575757Y-112877590D01*
X148194804Y-112877590D01*
X149718614Y-113353780D02*
X149147185Y-113353780D01*
X149432900Y-113353780D02*
X149432900Y-112353780D01*
X149337661Y-112496638D01*
X149242423Y-112591876D01*
X149147185Y-112639495D01*
X151546619Y-114179338D02*
X151499000Y-114274576D01*
X151403761Y-114369814D01*
X151260904Y-114512671D01*
X151213285Y-114607909D01*
X151213285Y-114703147D01*
X151451380Y-114655528D02*
X151403761Y-114750766D01*
X151308523Y-114846004D01*
X151118047Y-114893623D01*
X150784714Y-114893623D01*
X150594238Y-114846004D01*
X150499000Y-114750766D01*
X150451380Y-114655528D01*
X150451380Y-114465052D01*
X150499000Y-114369814D01*
X150594238Y-114274576D01*
X150784714Y-114226957D01*
X151118047Y-114226957D01*
X151308523Y-114274576D01*
X151403761Y-114369814D01*
X151451380Y-114465052D01*
X151451380Y-114655528D01*
X150546619Y-113846004D02*
X150499000Y-113798385D01*
X150451380Y-113703147D01*
X150451380Y-113465052D01*
X150499000Y-113369814D01*
X150546619Y-113322195D01*
X150641857Y-113274576D01*
X150737095Y-113274576D01*
X150879952Y-113322195D01*
X151451380Y-113893623D01*
X151451380Y-113274576D01*
X134706419Y-114407938D02*
X134658800Y-114503176D01*
X134563561Y-114598414D01*
X134420704Y-114741271D01*
X134373085Y-114836509D01*
X134373085Y-114931747D01*
X134611180Y-114884128D02*
X134563561Y-114979366D01*
X134468323Y-115074604D01*
X134277847Y-115122223D01*
X133944514Y-115122223D01*
X133754038Y-115074604D01*
X133658800Y-114979366D01*
X133611180Y-114884128D01*
X133611180Y-114693652D01*
X133658800Y-114598414D01*
X133754038Y-114503176D01*
X133944514Y-114455557D01*
X134277847Y-114455557D01*
X134468323Y-114503176D01*
X134563561Y-114598414D01*
X134611180Y-114693652D01*
X134611180Y-114884128D01*
X134611180Y-113503176D02*
X134611180Y-114074604D01*
X134611180Y-113788890D02*
X133611180Y-113788890D01*
X133754038Y-113884128D01*
X133849276Y-113979366D01*
X133896895Y-114074604D01*
X153463666Y-109071480D02*
X153463666Y-109785766D01*
X153416047Y-109928623D01*
X153320809Y-110023861D01*
X153177952Y-110071480D01*
X153082714Y-110071480D01*
X153892238Y-109166719D02*
X153939857Y-109119100D01*
X154035095Y-109071480D01*
X154273190Y-109071480D01*
X154368428Y-109119100D01*
X154416047Y-109166719D01*
X154463666Y-109261957D01*
X154463666Y-109357195D01*
X154416047Y-109500052D01*
X153844619Y-110071480D01*
X154463666Y-110071480D01*
X139900066Y-109071480D02*
X139900066Y-109785766D01*
X139852447Y-109928623D01*
X139757209Y-110023861D01*
X139614352Y-110071480D01*
X139519114Y-110071480D01*
X140900066Y-110071480D02*
X140328638Y-110071480D01*
X140614352Y-110071480D02*
X140614352Y-109071480D01*
X140519114Y-109214338D01*
X140423876Y-109309576D01*
X140328638Y-109357195D01*
X160289842Y-112447366D02*
X160337461Y-112494985D01*
X160385080Y-112637842D01*
X160385080Y-112733080D01*
X160337461Y-112875938D01*
X160242223Y-112971176D01*
X160146985Y-113018795D01*
X159956509Y-113066414D01*
X159813652Y-113066414D01*
X159623176Y-113018795D01*
X159527938Y-112971176D01*
X159432700Y-112875938D01*
X159385080Y-112733080D01*
X159385080Y-112637842D01*
X159432700Y-112494985D01*
X159480319Y-112447366D01*
X159385080Y-112114033D02*
X159385080Y-111494985D01*
X159766033Y-111828319D01*
X159766033Y-111685461D01*
X159813652Y-111590223D01*
X159861271Y-111542604D01*
X159956509Y-111494985D01*
X160194604Y-111494985D01*
X160289842Y-111542604D01*
X160337461Y-111590223D01*
X160385080Y-111685461D01*
X160385080Y-111971176D01*
X160337461Y-112066414D01*
X160289842Y-112114033D01*
X147373942Y-113577666D02*
X147421561Y-113625285D01*
X147469180Y-113768142D01*
X147469180Y-113863380D01*
X147421561Y-114006238D01*
X147326323Y-114101476D01*
X147231085Y-114149095D01*
X147040609Y-114196714D01*
X146897752Y-114196714D01*
X146707276Y-114149095D01*
X146612038Y-114101476D01*
X146516800Y-114006238D01*
X146469180Y-113863380D01*
X146469180Y-113768142D01*
X146516800Y-113625285D01*
X146564419Y-113577666D01*
X146564419Y-113196714D02*
X146516800Y-113149095D01*
X146469180Y-113053857D01*
X146469180Y-112815761D01*
X146516800Y-112720523D01*
X146564419Y-112672904D01*
X146659657Y-112625285D01*
X146754895Y-112625285D01*
X146897752Y-112672904D01*
X147469180Y-113244333D01*
X147469180Y-112625285D01*
X142252642Y-116435166D02*
X142300261Y-116482785D01*
X142347880Y-116625642D01*
X142347880Y-116720880D01*
X142300261Y-116863738D01*
X142205023Y-116958976D01*
X142109785Y-117006595D01*
X141919309Y-117054214D01*
X141776452Y-117054214D01*
X141585976Y-117006595D01*
X141490738Y-116958976D01*
X141395500Y-116863738D01*
X141347880Y-116720880D01*
X141347880Y-116625642D01*
X141395500Y-116482785D01*
X141443119Y-116435166D01*
X142347880Y-115482785D02*
X142347880Y-116054214D01*
X142347880Y-115768500D02*
X141347880Y-115768500D01*
X141490738Y-115863738D01*
X141585976Y-115958976D01*
X141633595Y-116054214D01*
X144675180Y-116163385D02*
X144675180Y-116734814D01*
X144675180Y-116449100D02*
X143675180Y-116449100D01*
X143818038Y-116544338D01*
X143913276Y-116639576D01*
X143960895Y-116734814D01*
X143675180Y-115544338D02*
X143675180Y-115449100D01*
X143722800Y-115353861D01*
X143770419Y-115306242D01*
X143865657Y-115258623D01*
X144056133Y-115211004D01*
X144294228Y-115211004D01*
X144484704Y-115258623D01*
X144579942Y-115306242D01*
X144627561Y-115353861D01*
X144675180Y-115449100D01*
X144675180Y-115544338D01*
X144627561Y-115639576D01*
X144579942Y-115687195D01*
X144484704Y-115734814D01*
X144294228Y-115782433D01*
X144056133Y-115782433D01*
X143865657Y-115734814D01*
X143770419Y-115687195D01*
X143722800Y-115639576D01*
X143675180Y-115544338D01*
X143675180Y-114591957D02*
X143675180Y-114496719D01*
X143722800Y-114401480D01*
X143770419Y-114353861D01*
X143865657Y-114306242D01*
X144056133Y-114258623D01*
X144294228Y-114258623D01*
X144484704Y-114306242D01*
X144579942Y-114353861D01*
X144627561Y-114401480D01*
X144675180Y-114496719D01*
X144675180Y-114591957D01*
X144627561Y-114687195D01*
X144579942Y-114734814D01*
X144484704Y-114782433D01*
X144294228Y-114830052D01*
X144056133Y-114830052D01*
X143865657Y-114782433D01*
X143770419Y-114734814D01*
X143722800Y-114687195D01*
X143675180Y-114591957D01*
X144675180Y-113687195D02*
X144627561Y-113782433D01*
X144579942Y-113830052D01*
X144484704Y-113877671D01*
X144198990Y-113877671D01*
X144103752Y-113830052D01*
X144056133Y-113782433D01*
X144008514Y-113687195D01*
X144008514Y-113544338D01*
X144056133Y-113449100D01*
X144103752Y-113401480D01*
X144198990Y-113353861D01*
X144484704Y-113353861D01*
X144579942Y-113401480D01*
X144627561Y-113449100D01*
X144675180Y-113544338D01*
X144675180Y-113687195D01*
X144675180Y-112925290D02*
X143675180Y-112925290D01*
X144675180Y-112496719D02*
X144151371Y-112496719D01*
X144056133Y-112544338D01*
X144008514Y-112639576D01*
X144008514Y-112782433D01*
X144056133Y-112877671D01*
X144103752Y-112925290D01*
X144675180Y-112020528D02*
X144008514Y-112020528D01*
X144103752Y-112020528D02*
X144056133Y-111972909D01*
X144008514Y-111877671D01*
X144008514Y-111734814D01*
X144056133Y-111639576D01*
X144151371Y-111591957D01*
X144675180Y-111591957D01*
X144151371Y-111591957D02*
X144056133Y-111544338D01*
X144008514Y-111449100D01*
X144008514Y-111306242D01*
X144056133Y-111211004D01*
X144151371Y-111163385D01*
X144675180Y-111163385D01*
X144675180Y-110163385D02*
X144675180Y-110734814D01*
X144675180Y-110449100D02*
X143675180Y-110449100D01*
X143818038Y-110544338D01*
X143913276Y-110639576D01*
X143960895Y-110734814D01*
M02*
