G04 #@! TF.GenerationSoftware,KiCad,Pcbnew,(5.1.5)-3*
G04 #@! TF.CreationDate,2020-12-06T22:53:45+02:00*
G04 #@! TF.ProjectId,Single_transistor_AMP,53696e67-6c65-45f7-9472-616e73697374,V1.0*
G04 #@! TF.SameCoordinates,Original*
G04 #@! TF.FileFunction,Soldermask,Bot*
G04 #@! TF.FilePolarity,Negative*
%FSLAX46Y46*%
G04 Gerber Fmt 4.6, Leading zero omitted, Abs format (unit mm)*
G04 Created by KiCad (PCBNEW (5.1.5)-3) date 2020-12-06 22:53:45*
%MOMM*%
%LPD*%
G04 APERTURE LIST*
%ADD10C,0.100000*%
G04 APERTURE END LIST*
D10*
G36*
X138056716Y-112475034D02*
G01*
X138165292Y-112507971D01*
X138165295Y-112507972D01*
X138201401Y-112527271D01*
X138265357Y-112561456D01*
X138353064Y-112633436D01*
X138425044Y-112721143D01*
X138459229Y-112785099D01*
X138478528Y-112821205D01*
X138478529Y-112821208D01*
X138511466Y-112929784D01*
X138522587Y-113042700D01*
X138511466Y-113155616D01*
X138490914Y-113223364D01*
X138478528Y-113264195D01*
X138461878Y-113295344D01*
X138425044Y-113364257D01*
X138353064Y-113451964D01*
X138265357Y-113523944D01*
X138183941Y-113567461D01*
X138163566Y-113581075D01*
X138146239Y-113598402D01*
X138132626Y-113618776D01*
X138123248Y-113641415D01*
X138118468Y-113665448D01*
X138118468Y-113689952D01*
X138123248Y-113713985D01*
X138132626Y-113736624D01*
X138146240Y-113756999D01*
X138163567Y-113774326D01*
X138183941Y-113787939D01*
X138265357Y-113831456D01*
X138353064Y-113903436D01*
X138425044Y-113991143D01*
X138459229Y-114055099D01*
X138478528Y-114091205D01*
X138478529Y-114091208D01*
X138511466Y-114199784D01*
X138522587Y-114312700D01*
X138511466Y-114425616D01*
X138490914Y-114493364D01*
X138478528Y-114534195D01*
X138461878Y-114565344D01*
X138425044Y-114634257D01*
X138353064Y-114721964D01*
X138276154Y-114785083D01*
X138258835Y-114802402D01*
X138245221Y-114822777D01*
X138235843Y-114845416D01*
X138231063Y-114869449D01*
X138231063Y-114893953D01*
X138235843Y-114917986D01*
X138245221Y-114940625D01*
X138258834Y-114960999D01*
X138276161Y-114978326D01*
X138296536Y-114991940D01*
X138319175Y-115001318D01*
X138343208Y-115006098D01*
X138355460Y-115006700D01*
X138519800Y-115006700D01*
X138519800Y-116158700D01*
X136917800Y-116158700D01*
X136917800Y-115006700D01*
X137082140Y-115006700D01*
X137106526Y-115004298D01*
X137129975Y-114997185D01*
X137151586Y-114985634D01*
X137170528Y-114970089D01*
X137186073Y-114951147D01*
X137197624Y-114929536D01*
X137204737Y-114906087D01*
X137207139Y-114881701D01*
X137204737Y-114857315D01*
X137197624Y-114833866D01*
X137186073Y-114812255D01*
X137170528Y-114793313D01*
X137161455Y-114785091D01*
X137084536Y-114721964D01*
X137012556Y-114634257D01*
X136975722Y-114565344D01*
X136959072Y-114534195D01*
X136946686Y-114493364D01*
X136926134Y-114425616D01*
X136915013Y-114312700D01*
X136926134Y-114199784D01*
X136959071Y-114091208D01*
X136959072Y-114091205D01*
X136978371Y-114055099D01*
X137012556Y-113991143D01*
X137084536Y-113903436D01*
X137172243Y-113831456D01*
X137253659Y-113787939D01*
X137274034Y-113774325D01*
X137291361Y-113756998D01*
X137304974Y-113736624D01*
X137314352Y-113713985D01*
X137319132Y-113689952D01*
X137319132Y-113665448D01*
X137314352Y-113641415D01*
X137304974Y-113618776D01*
X137291360Y-113598401D01*
X137274033Y-113581074D01*
X137253659Y-113567461D01*
X137172243Y-113523944D01*
X137084536Y-113451964D01*
X137012556Y-113364257D01*
X136975722Y-113295344D01*
X136959072Y-113264195D01*
X136946686Y-113223364D01*
X136926134Y-113155616D01*
X136915013Y-113042700D01*
X136926134Y-112929784D01*
X136959071Y-112821208D01*
X136959072Y-112821205D01*
X136978371Y-112785099D01*
X137012556Y-112721143D01*
X137084536Y-112633436D01*
X137172243Y-112561456D01*
X137236199Y-112527271D01*
X137272305Y-112507972D01*
X137272308Y-112507971D01*
X137380884Y-112475034D01*
X137465502Y-112466700D01*
X137972098Y-112466700D01*
X138056716Y-112475034D01*
G37*
G36*
X154896916Y-112246434D02*
G01*
X155005492Y-112279371D01*
X155005495Y-112279372D01*
X155041601Y-112298671D01*
X155105557Y-112332856D01*
X155193264Y-112404836D01*
X155265244Y-112492543D01*
X155299429Y-112556499D01*
X155318728Y-112592605D01*
X155318729Y-112592608D01*
X155351666Y-112701184D01*
X155362787Y-112814100D01*
X155351666Y-112927016D01*
X155318729Y-113035592D01*
X155318728Y-113035595D01*
X155314930Y-113042700D01*
X155265244Y-113135657D01*
X155193264Y-113223364D01*
X155105557Y-113295344D01*
X155024141Y-113338861D01*
X155003766Y-113352475D01*
X154986439Y-113369802D01*
X154972826Y-113390176D01*
X154963448Y-113412815D01*
X154958668Y-113436848D01*
X154958668Y-113461352D01*
X154963448Y-113485385D01*
X154972826Y-113508024D01*
X154986440Y-113528399D01*
X155003767Y-113545726D01*
X155024141Y-113559339D01*
X155105557Y-113602856D01*
X155193264Y-113674836D01*
X155265244Y-113762543D01*
X155278818Y-113787939D01*
X155318728Y-113862605D01*
X155318729Y-113862608D01*
X155351666Y-113971184D01*
X155362787Y-114084100D01*
X155351666Y-114197016D01*
X155318729Y-114305592D01*
X155318728Y-114305595D01*
X155314930Y-114312700D01*
X155265244Y-114405657D01*
X155193264Y-114493364D01*
X155116354Y-114556483D01*
X155099035Y-114573802D01*
X155085421Y-114594177D01*
X155076043Y-114616816D01*
X155071263Y-114640849D01*
X155071263Y-114665353D01*
X155076043Y-114689386D01*
X155085421Y-114712025D01*
X155099034Y-114732399D01*
X155116361Y-114749726D01*
X155136736Y-114763340D01*
X155159375Y-114772718D01*
X155183408Y-114777498D01*
X155195660Y-114778100D01*
X155360000Y-114778100D01*
X155360000Y-115930100D01*
X153758000Y-115930100D01*
X153758000Y-114778100D01*
X153922340Y-114778100D01*
X153946726Y-114775698D01*
X153970175Y-114768585D01*
X153991786Y-114757034D01*
X154010728Y-114741489D01*
X154026273Y-114722547D01*
X154037824Y-114700936D01*
X154044937Y-114677487D01*
X154047339Y-114653101D01*
X154044937Y-114628715D01*
X154037824Y-114605266D01*
X154026273Y-114583655D01*
X154010728Y-114564713D01*
X154001655Y-114556491D01*
X153924736Y-114493364D01*
X153852756Y-114405657D01*
X153803070Y-114312700D01*
X153799272Y-114305595D01*
X153799271Y-114305592D01*
X153766334Y-114197016D01*
X153755213Y-114084100D01*
X153766334Y-113971184D01*
X153799271Y-113862608D01*
X153799272Y-113862605D01*
X153839182Y-113787939D01*
X153852756Y-113762543D01*
X153924736Y-113674836D01*
X154012443Y-113602856D01*
X154093859Y-113559339D01*
X154114234Y-113545725D01*
X154131561Y-113528398D01*
X154145174Y-113508024D01*
X154154552Y-113485385D01*
X154159332Y-113461352D01*
X154159332Y-113436848D01*
X154154552Y-113412815D01*
X154145174Y-113390176D01*
X154131560Y-113369801D01*
X154114233Y-113352474D01*
X154093859Y-113338861D01*
X154012443Y-113295344D01*
X153924736Y-113223364D01*
X153852756Y-113135657D01*
X153803070Y-113042700D01*
X153799272Y-113035595D01*
X153799271Y-113035592D01*
X153766334Y-112927016D01*
X153755213Y-112814100D01*
X153766334Y-112701184D01*
X153799271Y-112592608D01*
X153799272Y-112592605D01*
X153818571Y-112556499D01*
X153852756Y-112492543D01*
X153924736Y-112404836D01*
X154012443Y-112332856D01*
X154076399Y-112298671D01*
X154112505Y-112279372D01*
X154112508Y-112279371D01*
X154221084Y-112246434D01*
X154305702Y-112238100D01*
X154812298Y-112238100D01*
X154896916Y-112246434D01*
G37*
G36*
X157638000Y-105860100D02*
G01*
X155036000Y-105860100D01*
X155036000Y-103258100D01*
X157638000Y-103258100D01*
X157638000Y-105860100D01*
G37*
G36*
X151636487Y-103308096D02*
G01*
X151873253Y-103406168D01*
X151873255Y-103406169D01*
X152086339Y-103548547D01*
X152267553Y-103729761D01*
X152409932Y-103942847D01*
X152508004Y-104179613D01*
X152558000Y-104430961D01*
X152558000Y-104687239D01*
X152508004Y-104938587D01*
X152409932Y-105175353D01*
X152409931Y-105175355D01*
X152267553Y-105388439D01*
X152086339Y-105569653D01*
X151873255Y-105712031D01*
X151873254Y-105712032D01*
X151873253Y-105712032D01*
X151636487Y-105810104D01*
X151385139Y-105860100D01*
X151128861Y-105860100D01*
X150877513Y-105810104D01*
X150640747Y-105712032D01*
X150640746Y-105712032D01*
X150640745Y-105712031D01*
X150427661Y-105569653D01*
X150246447Y-105388439D01*
X150104069Y-105175355D01*
X150104068Y-105175353D01*
X150005996Y-104938587D01*
X149956000Y-104687239D01*
X149956000Y-104430961D01*
X150005996Y-104179613D01*
X150104068Y-103942847D01*
X150246447Y-103729761D01*
X150427661Y-103548547D01*
X150640745Y-103406169D01*
X150640747Y-103406168D01*
X150877513Y-103308096D01*
X151128861Y-103258100D01*
X151385139Y-103258100D01*
X151636487Y-103308096D01*
G37*
G36*
X144074400Y-105860100D02*
G01*
X141472400Y-105860100D01*
X141472400Y-103258100D01*
X144074400Y-103258100D01*
X144074400Y-105860100D01*
G37*
G36*
X138072887Y-103308096D02*
G01*
X138309653Y-103406168D01*
X138309655Y-103406169D01*
X138522739Y-103548547D01*
X138703953Y-103729761D01*
X138846332Y-103942847D01*
X138944404Y-104179613D01*
X138994400Y-104430961D01*
X138994400Y-104687239D01*
X138944404Y-104938587D01*
X138846332Y-105175353D01*
X138846331Y-105175355D01*
X138703953Y-105388439D01*
X138522739Y-105569653D01*
X138309655Y-105712031D01*
X138309654Y-105712032D01*
X138309653Y-105712032D01*
X138072887Y-105810104D01*
X137821539Y-105860100D01*
X137565261Y-105860100D01*
X137313913Y-105810104D01*
X137077147Y-105712032D01*
X137077146Y-105712032D01*
X137077145Y-105712031D01*
X136864061Y-105569653D01*
X136682847Y-105388439D01*
X136540469Y-105175355D01*
X136540468Y-105175353D01*
X136442396Y-104938587D01*
X136392400Y-104687239D01*
X136392400Y-104430961D01*
X136442396Y-104179613D01*
X136540468Y-103942847D01*
X136682847Y-103729761D01*
X136864061Y-103548547D01*
X137077145Y-103406169D01*
X137077147Y-103406168D01*
X137313913Y-103308096D01*
X137565261Y-103258100D01*
X137821539Y-103258100D01*
X138072887Y-103308096D01*
G37*
M02*
