G04 #@! TF.GenerationSoftware,KiCad,Pcbnew,(5.1.5)-3*
G04 #@! TF.CreationDate,2020-12-06T22:53:45+02:00*
G04 #@! TF.ProjectId,Single_transistor_AMP,53696e67-6c65-45f7-9472-616e73697374,V1.0*
G04 #@! TF.SameCoordinates,Original*
G04 #@! TF.FileFunction,Copper,L1,Top*
G04 #@! TF.FilePolarity,Positive*
%FSLAX46Y46*%
G04 Gerber Fmt 4.6, Leading zero omitted, Abs format (unit mm)*
G04 Created by KiCad (PCBNEW (5.1.5)-3) date 2020-12-06 22:53:45*
%MOMM*%
%LPD*%
G04 APERTURE LIST*
%ADD10C,0.100000*%
%ADD11R,1.500000X1.050000*%
%ADD12O,1.500000X1.050000*%
%ADD13C,2.500000*%
%ADD14R,2.500000X2.500000*%
%ADD15C,0.500000*%
%ADD16C,0.500000*%
%ADD17C,0.254000*%
G04 APERTURE END LIST*
G04 #@! TA.AperFunction,SMDPad,CuDef*
D10*
G36*
X146046458Y-115438410D02*
G01*
X146060776Y-115440534D01*
X146074817Y-115444051D01*
X146088446Y-115448928D01*
X146101531Y-115455117D01*
X146113947Y-115462558D01*
X146125573Y-115471181D01*
X146136298Y-115480902D01*
X146146019Y-115491627D01*
X146154642Y-115503253D01*
X146162083Y-115515669D01*
X146168272Y-115528754D01*
X146173149Y-115542383D01*
X146176666Y-115556424D01*
X146178790Y-115570742D01*
X146179500Y-115585200D01*
X146179500Y-115880200D01*
X146178790Y-115894658D01*
X146176666Y-115908976D01*
X146173149Y-115923017D01*
X146168272Y-115936646D01*
X146162083Y-115949731D01*
X146154642Y-115962147D01*
X146146019Y-115973773D01*
X146136298Y-115984498D01*
X146125573Y-115994219D01*
X146113947Y-116002842D01*
X146101531Y-116010283D01*
X146088446Y-116016472D01*
X146074817Y-116021349D01*
X146060776Y-116024866D01*
X146046458Y-116026990D01*
X146032000Y-116027700D01*
X145687000Y-116027700D01*
X145672542Y-116026990D01*
X145658224Y-116024866D01*
X145644183Y-116021349D01*
X145630554Y-116016472D01*
X145617469Y-116010283D01*
X145605053Y-116002842D01*
X145593427Y-115994219D01*
X145582702Y-115984498D01*
X145572981Y-115973773D01*
X145564358Y-115962147D01*
X145556917Y-115949731D01*
X145550728Y-115936646D01*
X145545851Y-115923017D01*
X145542334Y-115908976D01*
X145540210Y-115894658D01*
X145539500Y-115880200D01*
X145539500Y-115585200D01*
X145540210Y-115570742D01*
X145542334Y-115556424D01*
X145545851Y-115542383D01*
X145550728Y-115528754D01*
X145556917Y-115515669D01*
X145564358Y-115503253D01*
X145572981Y-115491627D01*
X145582702Y-115480902D01*
X145593427Y-115471181D01*
X145605053Y-115462558D01*
X145617469Y-115455117D01*
X145630554Y-115448928D01*
X145644183Y-115444051D01*
X145658224Y-115440534D01*
X145672542Y-115438410D01*
X145687000Y-115437700D01*
X146032000Y-115437700D01*
X146046458Y-115438410D01*
G37*
G04 #@! TD.AperFunction*
G04 #@! TA.AperFunction,SMDPad,CuDef*
G36*
X146046458Y-116408410D02*
G01*
X146060776Y-116410534D01*
X146074817Y-116414051D01*
X146088446Y-116418928D01*
X146101531Y-116425117D01*
X146113947Y-116432558D01*
X146125573Y-116441181D01*
X146136298Y-116450902D01*
X146146019Y-116461627D01*
X146154642Y-116473253D01*
X146162083Y-116485669D01*
X146168272Y-116498754D01*
X146173149Y-116512383D01*
X146176666Y-116526424D01*
X146178790Y-116540742D01*
X146179500Y-116555200D01*
X146179500Y-116850200D01*
X146178790Y-116864658D01*
X146176666Y-116878976D01*
X146173149Y-116893017D01*
X146168272Y-116906646D01*
X146162083Y-116919731D01*
X146154642Y-116932147D01*
X146146019Y-116943773D01*
X146136298Y-116954498D01*
X146125573Y-116964219D01*
X146113947Y-116972842D01*
X146101531Y-116980283D01*
X146088446Y-116986472D01*
X146074817Y-116991349D01*
X146060776Y-116994866D01*
X146046458Y-116996990D01*
X146032000Y-116997700D01*
X145687000Y-116997700D01*
X145672542Y-116996990D01*
X145658224Y-116994866D01*
X145644183Y-116991349D01*
X145630554Y-116986472D01*
X145617469Y-116980283D01*
X145605053Y-116972842D01*
X145593427Y-116964219D01*
X145582702Y-116954498D01*
X145572981Y-116943773D01*
X145564358Y-116932147D01*
X145556917Y-116919731D01*
X145550728Y-116906646D01*
X145545851Y-116893017D01*
X145542334Y-116878976D01*
X145540210Y-116864658D01*
X145539500Y-116850200D01*
X145539500Y-116555200D01*
X145540210Y-116540742D01*
X145542334Y-116526424D01*
X145545851Y-116512383D01*
X145550728Y-116498754D01*
X145556917Y-116485669D01*
X145564358Y-116473253D01*
X145572981Y-116461627D01*
X145582702Y-116450902D01*
X145593427Y-116441181D01*
X145605053Y-116432558D01*
X145617469Y-116425117D01*
X145630554Y-116418928D01*
X145644183Y-116414051D01*
X145658224Y-116410534D01*
X145672542Y-116408410D01*
X145687000Y-116407700D01*
X146032000Y-116407700D01*
X146046458Y-116408410D01*
G37*
G04 #@! TD.AperFunction*
G04 #@! TA.AperFunction,SMDPad,CuDef*
G36*
X158924258Y-115582910D02*
G01*
X158938576Y-115585034D01*
X158952617Y-115588551D01*
X158966246Y-115593428D01*
X158979331Y-115599617D01*
X158991747Y-115607058D01*
X159003373Y-115615681D01*
X159014098Y-115625402D01*
X159023819Y-115636127D01*
X159032442Y-115647753D01*
X159039883Y-115660169D01*
X159046072Y-115673254D01*
X159050949Y-115686883D01*
X159054466Y-115700924D01*
X159056590Y-115715242D01*
X159057300Y-115729700D01*
X159057300Y-116024700D01*
X159056590Y-116039158D01*
X159054466Y-116053476D01*
X159050949Y-116067517D01*
X159046072Y-116081146D01*
X159039883Y-116094231D01*
X159032442Y-116106647D01*
X159023819Y-116118273D01*
X159014098Y-116128998D01*
X159003373Y-116138719D01*
X158991747Y-116147342D01*
X158979331Y-116154783D01*
X158966246Y-116160972D01*
X158952617Y-116165849D01*
X158938576Y-116169366D01*
X158924258Y-116171490D01*
X158909800Y-116172200D01*
X158564800Y-116172200D01*
X158550342Y-116171490D01*
X158536024Y-116169366D01*
X158521983Y-116165849D01*
X158508354Y-116160972D01*
X158495269Y-116154783D01*
X158482853Y-116147342D01*
X158471227Y-116138719D01*
X158460502Y-116128998D01*
X158450781Y-116118273D01*
X158442158Y-116106647D01*
X158434717Y-116094231D01*
X158428528Y-116081146D01*
X158423651Y-116067517D01*
X158420134Y-116053476D01*
X158418010Y-116039158D01*
X158417300Y-116024700D01*
X158417300Y-115729700D01*
X158418010Y-115715242D01*
X158420134Y-115700924D01*
X158423651Y-115686883D01*
X158428528Y-115673254D01*
X158434717Y-115660169D01*
X158442158Y-115647753D01*
X158450781Y-115636127D01*
X158460502Y-115625402D01*
X158471227Y-115615681D01*
X158482853Y-115607058D01*
X158495269Y-115599617D01*
X158508354Y-115593428D01*
X158521983Y-115588551D01*
X158536024Y-115585034D01*
X158550342Y-115582910D01*
X158564800Y-115582200D01*
X158909800Y-115582200D01*
X158924258Y-115582910D01*
G37*
G04 #@! TD.AperFunction*
G04 #@! TA.AperFunction,SMDPad,CuDef*
G36*
X158924258Y-114612910D02*
G01*
X158938576Y-114615034D01*
X158952617Y-114618551D01*
X158966246Y-114623428D01*
X158979331Y-114629617D01*
X158991747Y-114637058D01*
X159003373Y-114645681D01*
X159014098Y-114655402D01*
X159023819Y-114666127D01*
X159032442Y-114677753D01*
X159039883Y-114690169D01*
X159046072Y-114703254D01*
X159050949Y-114716883D01*
X159054466Y-114730924D01*
X159056590Y-114745242D01*
X159057300Y-114759700D01*
X159057300Y-115054700D01*
X159056590Y-115069158D01*
X159054466Y-115083476D01*
X159050949Y-115097517D01*
X159046072Y-115111146D01*
X159039883Y-115124231D01*
X159032442Y-115136647D01*
X159023819Y-115148273D01*
X159014098Y-115158998D01*
X159003373Y-115168719D01*
X158991747Y-115177342D01*
X158979331Y-115184783D01*
X158966246Y-115190972D01*
X158952617Y-115195849D01*
X158938576Y-115199366D01*
X158924258Y-115201490D01*
X158909800Y-115202200D01*
X158564800Y-115202200D01*
X158550342Y-115201490D01*
X158536024Y-115199366D01*
X158521983Y-115195849D01*
X158508354Y-115190972D01*
X158495269Y-115184783D01*
X158482853Y-115177342D01*
X158471227Y-115168719D01*
X158460502Y-115158998D01*
X158450781Y-115148273D01*
X158442158Y-115136647D01*
X158434717Y-115124231D01*
X158428528Y-115111146D01*
X158423651Y-115097517D01*
X158420134Y-115083476D01*
X158418010Y-115069158D01*
X158417300Y-115054700D01*
X158417300Y-114759700D01*
X158418010Y-114745242D01*
X158420134Y-114730924D01*
X158423651Y-114716883D01*
X158428528Y-114703254D01*
X158434717Y-114690169D01*
X158442158Y-114677753D01*
X158450781Y-114666127D01*
X158460502Y-114655402D01*
X158471227Y-114645681D01*
X158482853Y-114637058D01*
X158495269Y-114629617D01*
X158508354Y-114623428D01*
X158521983Y-114618551D01*
X158536024Y-114615034D01*
X158550342Y-114612910D01*
X158564800Y-114612200D01*
X158909800Y-114612200D01*
X158924258Y-114612910D01*
G37*
G04 #@! TD.AperFunction*
G04 #@! TA.AperFunction,SMDPad,CuDef*
G36*
X149594958Y-116215910D02*
G01*
X149609276Y-116218034D01*
X149623317Y-116221551D01*
X149636946Y-116226428D01*
X149650031Y-116232617D01*
X149662447Y-116240058D01*
X149674073Y-116248681D01*
X149684798Y-116258402D01*
X149694519Y-116269127D01*
X149703142Y-116280753D01*
X149710583Y-116293169D01*
X149716772Y-116306254D01*
X149721649Y-116319883D01*
X149725166Y-116333924D01*
X149727290Y-116348242D01*
X149728000Y-116362700D01*
X149728000Y-116707700D01*
X149727290Y-116722158D01*
X149725166Y-116736476D01*
X149721649Y-116750517D01*
X149716772Y-116764146D01*
X149710583Y-116777231D01*
X149703142Y-116789647D01*
X149694519Y-116801273D01*
X149684798Y-116811998D01*
X149674073Y-116821719D01*
X149662447Y-116830342D01*
X149650031Y-116837783D01*
X149636946Y-116843972D01*
X149623317Y-116848849D01*
X149609276Y-116852366D01*
X149594958Y-116854490D01*
X149580500Y-116855200D01*
X149285500Y-116855200D01*
X149271042Y-116854490D01*
X149256724Y-116852366D01*
X149242683Y-116848849D01*
X149229054Y-116843972D01*
X149215969Y-116837783D01*
X149203553Y-116830342D01*
X149191927Y-116821719D01*
X149181202Y-116811998D01*
X149171481Y-116801273D01*
X149162858Y-116789647D01*
X149155417Y-116777231D01*
X149149228Y-116764146D01*
X149144351Y-116750517D01*
X149140834Y-116736476D01*
X149138710Y-116722158D01*
X149138000Y-116707700D01*
X149138000Y-116362700D01*
X149138710Y-116348242D01*
X149140834Y-116333924D01*
X149144351Y-116319883D01*
X149149228Y-116306254D01*
X149155417Y-116293169D01*
X149162858Y-116280753D01*
X149171481Y-116269127D01*
X149181202Y-116258402D01*
X149191927Y-116248681D01*
X149203553Y-116240058D01*
X149215969Y-116232617D01*
X149229054Y-116226428D01*
X149242683Y-116221551D01*
X149256724Y-116218034D01*
X149271042Y-116215910D01*
X149285500Y-116215200D01*
X149580500Y-116215200D01*
X149594958Y-116215910D01*
G37*
G04 #@! TD.AperFunction*
G04 #@! TA.AperFunction,SMDPad,CuDef*
G36*
X148624958Y-116215910D02*
G01*
X148639276Y-116218034D01*
X148653317Y-116221551D01*
X148666946Y-116226428D01*
X148680031Y-116232617D01*
X148692447Y-116240058D01*
X148704073Y-116248681D01*
X148714798Y-116258402D01*
X148724519Y-116269127D01*
X148733142Y-116280753D01*
X148740583Y-116293169D01*
X148746772Y-116306254D01*
X148751649Y-116319883D01*
X148755166Y-116333924D01*
X148757290Y-116348242D01*
X148758000Y-116362700D01*
X148758000Y-116707700D01*
X148757290Y-116722158D01*
X148755166Y-116736476D01*
X148751649Y-116750517D01*
X148746772Y-116764146D01*
X148740583Y-116777231D01*
X148733142Y-116789647D01*
X148724519Y-116801273D01*
X148714798Y-116811998D01*
X148704073Y-116821719D01*
X148692447Y-116830342D01*
X148680031Y-116837783D01*
X148666946Y-116843972D01*
X148653317Y-116848849D01*
X148639276Y-116852366D01*
X148624958Y-116854490D01*
X148610500Y-116855200D01*
X148315500Y-116855200D01*
X148301042Y-116854490D01*
X148286724Y-116852366D01*
X148272683Y-116848849D01*
X148259054Y-116843972D01*
X148245969Y-116837783D01*
X148233553Y-116830342D01*
X148221927Y-116821719D01*
X148211202Y-116811998D01*
X148201481Y-116801273D01*
X148192858Y-116789647D01*
X148185417Y-116777231D01*
X148179228Y-116764146D01*
X148174351Y-116750517D01*
X148170834Y-116736476D01*
X148168710Y-116722158D01*
X148168000Y-116707700D01*
X148168000Y-116362700D01*
X148168710Y-116348242D01*
X148170834Y-116333924D01*
X148174351Y-116319883D01*
X148179228Y-116306254D01*
X148185417Y-116293169D01*
X148192858Y-116280753D01*
X148201481Y-116269127D01*
X148211202Y-116258402D01*
X148221927Y-116248681D01*
X148233553Y-116240058D01*
X148245969Y-116232617D01*
X148259054Y-116226428D01*
X148272683Y-116221551D01*
X148286724Y-116218034D01*
X148301042Y-116215910D01*
X148315500Y-116215200D01*
X148610500Y-116215200D01*
X148624958Y-116215910D01*
G37*
G04 #@! TD.AperFunction*
G04 #@! TA.AperFunction,SMDPad,CuDef*
G36*
X149579858Y-113752110D02*
G01*
X149594176Y-113754234D01*
X149608217Y-113757751D01*
X149621846Y-113762628D01*
X149634931Y-113768817D01*
X149647347Y-113776258D01*
X149658973Y-113784881D01*
X149669698Y-113794602D01*
X149679419Y-113805327D01*
X149688042Y-113816953D01*
X149695483Y-113829369D01*
X149701672Y-113842454D01*
X149706549Y-113856083D01*
X149710066Y-113870124D01*
X149712190Y-113884442D01*
X149712900Y-113898900D01*
X149712900Y-114243900D01*
X149712190Y-114258358D01*
X149710066Y-114272676D01*
X149706549Y-114286717D01*
X149701672Y-114300346D01*
X149695483Y-114313431D01*
X149688042Y-114325847D01*
X149679419Y-114337473D01*
X149669698Y-114348198D01*
X149658973Y-114357919D01*
X149647347Y-114366542D01*
X149634931Y-114373983D01*
X149621846Y-114380172D01*
X149608217Y-114385049D01*
X149594176Y-114388566D01*
X149579858Y-114390690D01*
X149565400Y-114391400D01*
X149270400Y-114391400D01*
X149255942Y-114390690D01*
X149241624Y-114388566D01*
X149227583Y-114385049D01*
X149213954Y-114380172D01*
X149200869Y-114373983D01*
X149188453Y-114366542D01*
X149176827Y-114357919D01*
X149166102Y-114348198D01*
X149156381Y-114337473D01*
X149147758Y-114325847D01*
X149140317Y-114313431D01*
X149134128Y-114300346D01*
X149129251Y-114286717D01*
X149125734Y-114272676D01*
X149123610Y-114258358D01*
X149122900Y-114243900D01*
X149122900Y-113898900D01*
X149123610Y-113884442D01*
X149125734Y-113870124D01*
X149129251Y-113856083D01*
X149134128Y-113842454D01*
X149140317Y-113829369D01*
X149147758Y-113816953D01*
X149156381Y-113805327D01*
X149166102Y-113794602D01*
X149176827Y-113784881D01*
X149188453Y-113776258D01*
X149200869Y-113768817D01*
X149213954Y-113762628D01*
X149227583Y-113757751D01*
X149241624Y-113754234D01*
X149255942Y-113752110D01*
X149270400Y-113751400D01*
X149565400Y-113751400D01*
X149579858Y-113752110D01*
G37*
G04 #@! TD.AperFunction*
G04 #@! TA.AperFunction,SMDPad,CuDef*
G36*
X148609858Y-113752110D02*
G01*
X148624176Y-113754234D01*
X148638217Y-113757751D01*
X148651846Y-113762628D01*
X148664931Y-113768817D01*
X148677347Y-113776258D01*
X148688973Y-113784881D01*
X148699698Y-113794602D01*
X148709419Y-113805327D01*
X148718042Y-113816953D01*
X148725483Y-113829369D01*
X148731672Y-113842454D01*
X148736549Y-113856083D01*
X148740066Y-113870124D01*
X148742190Y-113884442D01*
X148742900Y-113898900D01*
X148742900Y-114243900D01*
X148742190Y-114258358D01*
X148740066Y-114272676D01*
X148736549Y-114286717D01*
X148731672Y-114300346D01*
X148725483Y-114313431D01*
X148718042Y-114325847D01*
X148709419Y-114337473D01*
X148699698Y-114348198D01*
X148688973Y-114357919D01*
X148677347Y-114366542D01*
X148664931Y-114373983D01*
X148651846Y-114380172D01*
X148638217Y-114385049D01*
X148624176Y-114388566D01*
X148609858Y-114390690D01*
X148595400Y-114391400D01*
X148300400Y-114391400D01*
X148285942Y-114390690D01*
X148271624Y-114388566D01*
X148257583Y-114385049D01*
X148243954Y-114380172D01*
X148230869Y-114373983D01*
X148218453Y-114366542D01*
X148206827Y-114357919D01*
X148196102Y-114348198D01*
X148186381Y-114337473D01*
X148177758Y-114325847D01*
X148170317Y-114313431D01*
X148164128Y-114300346D01*
X148159251Y-114286717D01*
X148155734Y-114272676D01*
X148153610Y-114258358D01*
X148152900Y-114243900D01*
X148152900Y-113898900D01*
X148153610Y-113884442D01*
X148155734Y-113870124D01*
X148159251Y-113856083D01*
X148164128Y-113842454D01*
X148170317Y-113829369D01*
X148177758Y-113816953D01*
X148186381Y-113805327D01*
X148196102Y-113794602D01*
X148206827Y-113784881D01*
X148218453Y-113776258D01*
X148230869Y-113768817D01*
X148243954Y-113762628D01*
X148257583Y-113757751D01*
X148271624Y-113754234D01*
X148285942Y-113752110D01*
X148300400Y-113751400D01*
X148595400Y-113751400D01*
X148609858Y-113752110D01*
G37*
G04 #@! TD.AperFunction*
D11*
X154559000Y-115354100D03*
D12*
X154559000Y-112814100D03*
X154559000Y-114084100D03*
D11*
X137718800Y-115582700D03*
D12*
X137718800Y-113042700D03*
X137718800Y-114312700D03*
D13*
X151257000Y-104559100D03*
D14*
X156337000Y-104559100D03*
D13*
X137693400Y-104559100D03*
D14*
X142773400Y-104559100D03*
G04 #@! TA.AperFunction,SMDPad,CuDef*
D10*
G36*
X158949658Y-112471410D02*
G01*
X158963976Y-112473534D01*
X158978017Y-112477051D01*
X158991646Y-112481928D01*
X159004731Y-112488117D01*
X159017147Y-112495558D01*
X159028773Y-112504181D01*
X159039498Y-112513902D01*
X159049219Y-112524627D01*
X159057842Y-112536253D01*
X159065283Y-112548669D01*
X159071472Y-112561754D01*
X159076349Y-112575383D01*
X159079866Y-112589424D01*
X159081990Y-112603742D01*
X159082700Y-112618200D01*
X159082700Y-112913200D01*
X159081990Y-112927658D01*
X159079866Y-112941976D01*
X159076349Y-112956017D01*
X159071472Y-112969646D01*
X159065283Y-112982731D01*
X159057842Y-112995147D01*
X159049219Y-113006773D01*
X159039498Y-113017498D01*
X159028773Y-113027219D01*
X159017147Y-113035842D01*
X159004731Y-113043283D01*
X158991646Y-113049472D01*
X158978017Y-113054349D01*
X158963976Y-113057866D01*
X158949658Y-113059990D01*
X158935200Y-113060700D01*
X158590200Y-113060700D01*
X158575742Y-113059990D01*
X158561424Y-113057866D01*
X158547383Y-113054349D01*
X158533754Y-113049472D01*
X158520669Y-113043283D01*
X158508253Y-113035842D01*
X158496627Y-113027219D01*
X158485902Y-113017498D01*
X158476181Y-113006773D01*
X158467558Y-112995147D01*
X158460117Y-112982731D01*
X158453928Y-112969646D01*
X158449051Y-112956017D01*
X158445534Y-112941976D01*
X158443410Y-112927658D01*
X158442700Y-112913200D01*
X158442700Y-112618200D01*
X158443410Y-112603742D01*
X158445534Y-112589424D01*
X158449051Y-112575383D01*
X158453928Y-112561754D01*
X158460117Y-112548669D01*
X158467558Y-112536253D01*
X158476181Y-112524627D01*
X158485902Y-112513902D01*
X158496627Y-112504181D01*
X158508253Y-112495558D01*
X158520669Y-112488117D01*
X158533754Y-112481928D01*
X158547383Y-112477051D01*
X158561424Y-112473534D01*
X158575742Y-112471410D01*
X158590200Y-112470700D01*
X158935200Y-112470700D01*
X158949658Y-112471410D01*
G37*
G04 #@! TD.AperFunction*
G04 #@! TA.AperFunction,SMDPad,CuDef*
G36*
X158949658Y-111501410D02*
G01*
X158963976Y-111503534D01*
X158978017Y-111507051D01*
X158991646Y-111511928D01*
X159004731Y-111518117D01*
X159017147Y-111525558D01*
X159028773Y-111534181D01*
X159039498Y-111543902D01*
X159049219Y-111554627D01*
X159057842Y-111566253D01*
X159065283Y-111578669D01*
X159071472Y-111591754D01*
X159076349Y-111605383D01*
X159079866Y-111619424D01*
X159081990Y-111633742D01*
X159082700Y-111648200D01*
X159082700Y-111943200D01*
X159081990Y-111957658D01*
X159079866Y-111971976D01*
X159076349Y-111986017D01*
X159071472Y-111999646D01*
X159065283Y-112012731D01*
X159057842Y-112025147D01*
X159049219Y-112036773D01*
X159039498Y-112047498D01*
X159028773Y-112057219D01*
X159017147Y-112065842D01*
X159004731Y-112073283D01*
X158991646Y-112079472D01*
X158978017Y-112084349D01*
X158963976Y-112087866D01*
X158949658Y-112089990D01*
X158935200Y-112090700D01*
X158590200Y-112090700D01*
X158575742Y-112089990D01*
X158561424Y-112087866D01*
X158547383Y-112084349D01*
X158533754Y-112079472D01*
X158520669Y-112073283D01*
X158508253Y-112065842D01*
X158496627Y-112057219D01*
X158485902Y-112047498D01*
X158476181Y-112036773D01*
X158467558Y-112025147D01*
X158460117Y-112012731D01*
X158453928Y-111999646D01*
X158449051Y-111986017D01*
X158445534Y-111971976D01*
X158443410Y-111957658D01*
X158442700Y-111943200D01*
X158442700Y-111648200D01*
X158443410Y-111633742D01*
X158445534Y-111619424D01*
X158449051Y-111605383D01*
X158453928Y-111591754D01*
X158460117Y-111578669D01*
X158467558Y-111566253D01*
X158476181Y-111554627D01*
X158485902Y-111543902D01*
X158496627Y-111534181D01*
X158508253Y-111525558D01*
X158520669Y-111518117D01*
X158533754Y-111511928D01*
X158547383Y-111507051D01*
X158561424Y-111503534D01*
X158575742Y-111501410D01*
X158590200Y-111500700D01*
X158935200Y-111500700D01*
X158949658Y-111501410D01*
G37*
G04 #@! TD.AperFunction*
G04 #@! TA.AperFunction,SMDPad,CuDef*
G36*
X146033758Y-113601710D02*
G01*
X146048076Y-113603834D01*
X146062117Y-113607351D01*
X146075746Y-113612228D01*
X146088831Y-113618417D01*
X146101247Y-113625858D01*
X146112873Y-113634481D01*
X146123598Y-113644202D01*
X146133319Y-113654927D01*
X146141942Y-113666553D01*
X146149383Y-113678969D01*
X146155572Y-113692054D01*
X146160449Y-113705683D01*
X146163966Y-113719724D01*
X146166090Y-113734042D01*
X146166800Y-113748500D01*
X146166800Y-114043500D01*
X146166090Y-114057958D01*
X146163966Y-114072276D01*
X146160449Y-114086317D01*
X146155572Y-114099946D01*
X146149383Y-114113031D01*
X146141942Y-114125447D01*
X146133319Y-114137073D01*
X146123598Y-114147798D01*
X146112873Y-114157519D01*
X146101247Y-114166142D01*
X146088831Y-114173583D01*
X146075746Y-114179772D01*
X146062117Y-114184649D01*
X146048076Y-114188166D01*
X146033758Y-114190290D01*
X146019300Y-114191000D01*
X145674300Y-114191000D01*
X145659842Y-114190290D01*
X145645524Y-114188166D01*
X145631483Y-114184649D01*
X145617854Y-114179772D01*
X145604769Y-114173583D01*
X145592353Y-114166142D01*
X145580727Y-114157519D01*
X145570002Y-114147798D01*
X145560281Y-114137073D01*
X145551658Y-114125447D01*
X145544217Y-114113031D01*
X145538028Y-114099946D01*
X145533151Y-114086317D01*
X145529634Y-114072276D01*
X145527510Y-114057958D01*
X145526800Y-114043500D01*
X145526800Y-113748500D01*
X145527510Y-113734042D01*
X145529634Y-113719724D01*
X145533151Y-113705683D01*
X145538028Y-113692054D01*
X145544217Y-113678969D01*
X145551658Y-113666553D01*
X145560281Y-113654927D01*
X145570002Y-113644202D01*
X145580727Y-113634481D01*
X145592353Y-113625858D01*
X145604769Y-113618417D01*
X145617854Y-113612228D01*
X145631483Y-113607351D01*
X145645524Y-113603834D01*
X145659842Y-113601710D01*
X145674300Y-113601000D01*
X146019300Y-113601000D01*
X146033758Y-113601710D01*
G37*
G04 #@! TD.AperFunction*
G04 #@! TA.AperFunction,SMDPad,CuDef*
G36*
X146033758Y-112631710D02*
G01*
X146048076Y-112633834D01*
X146062117Y-112637351D01*
X146075746Y-112642228D01*
X146088831Y-112648417D01*
X146101247Y-112655858D01*
X146112873Y-112664481D01*
X146123598Y-112674202D01*
X146133319Y-112684927D01*
X146141942Y-112696553D01*
X146149383Y-112708969D01*
X146155572Y-112722054D01*
X146160449Y-112735683D01*
X146163966Y-112749724D01*
X146166090Y-112764042D01*
X146166800Y-112778500D01*
X146166800Y-113073500D01*
X146166090Y-113087958D01*
X146163966Y-113102276D01*
X146160449Y-113116317D01*
X146155572Y-113129946D01*
X146149383Y-113143031D01*
X146141942Y-113155447D01*
X146133319Y-113167073D01*
X146123598Y-113177798D01*
X146112873Y-113187519D01*
X146101247Y-113196142D01*
X146088831Y-113203583D01*
X146075746Y-113209772D01*
X146062117Y-113214649D01*
X146048076Y-113218166D01*
X146033758Y-113220290D01*
X146019300Y-113221000D01*
X145674300Y-113221000D01*
X145659842Y-113220290D01*
X145645524Y-113218166D01*
X145631483Y-113214649D01*
X145617854Y-113209772D01*
X145604769Y-113203583D01*
X145592353Y-113196142D01*
X145580727Y-113187519D01*
X145570002Y-113177798D01*
X145560281Y-113167073D01*
X145551658Y-113155447D01*
X145544217Y-113143031D01*
X145538028Y-113129946D01*
X145533151Y-113116317D01*
X145529634Y-113102276D01*
X145527510Y-113087958D01*
X145526800Y-113073500D01*
X145526800Y-112778500D01*
X145527510Y-112764042D01*
X145529634Y-112749724D01*
X145533151Y-112735683D01*
X145538028Y-112722054D01*
X145544217Y-112708969D01*
X145551658Y-112696553D01*
X145560281Y-112684927D01*
X145570002Y-112674202D01*
X145580727Y-112664481D01*
X145592353Y-112655858D01*
X145604769Y-112648417D01*
X145617854Y-112642228D01*
X145631483Y-112637351D01*
X145645524Y-112633834D01*
X145659842Y-112631710D01*
X145674300Y-112631000D01*
X146019300Y-112631000D01*
X146033758Y-112631710D01*
G37*
G04 #@! TD.AperFunction*
G04 #@! TA.AperFunction,SMDPad,CuDef*
G36*
X143252458Y-115489210D02*
G01*
X143266776Y-115491334D01*
X143280817Y-115494851D01*
X143294446Y-115499728D01*
X143307531Y-115505917D01*
X143319947Y-115513358D01*
X143331573Y-115521981D01*
X143342298Y-115531702D01*
X143352019Y-115542427D01*
X143360642Y-115554053D01*
X143368083Y-115566469D01*
X143374272Y-115579554D01*
X143379149Y-115593183D01*
X143382666Y-115607224D01*
X143384790Y-115621542D01*
X143385500Y-115636000D01*
X143385500Y-115931000D01*
X143384790Y-115945458D01*
X143382666Y-115959776D01*
X143379149Y-115973817D01*
X143374272Y-115987446D01*
X143368083Y-116000531D01*
X143360642Y-116012947D01*
X143352019Y-116024573D01*
X143342298Y-116035298D01*
X143331573Y-116045019D01*
X143319947Y-116053642D01*
X143307531Y-116061083D01*
X143294446Y-116067272D01*
X143280817Y-116072149D01*
X143266776Y-116075666D01*
X143252458Y-116077790D01*
X143238000Y-116078500D01*
X142893000Y-116078500D01*
X142878542Y-116077790D01*
X142864224Y-116075666D01*
X142850183Y-116072149D01*
X142836554Y-116067272D01*
X142823469Y-116061083D01*
X142811053Y-116053642D01*
X142799427Y-116045019D01*
X142788702Y-116035298D01*
X142778981Y-116024573D01*
X142770358Y-116012947D01*
X142762917Y-116000531D01*
X142756728Y-115987446D01*
X142751851Y-115973817D01*
X142748334Y-115959776D01*
X142746210Y-115945458D01*
X142745500Y-115931000D01*
X142745500Y-115636000D01*
X142746210Y-115621542D01*
X142748334Y-115607224D01*
X142751851Y-115593183D01*
X142756728Y-115579554D01*
X142762917Y-115566469D01*
X142770358Y-115554053D01*
X142778981Y-115542427D01*
X142788702Y-115531702D01*
X142799427Y-115521981D01*
X142811053Y-115513358D01*
X142823469Y-115505917D01*
X142836554Y-115499728D01*
X142850183Y-115494851D01*
X142864224Y-115491334D01*
X142878542Y-115489210D01*
X142893000Y-115488500D01*
X143238000Y-115488500D01*
X143252458Y-115489210D01*
G37*
G04 #@! TD.AperFunction*
G04 #@! TA.AperFunction,SMDPad,CuDef*
G36*
X143252458Y-116459210D02*
G01*
X143266776Y-116461334D01*
X143280817Y-116464851D01*
X143294446Y-116469728D01*
X143307531Y-116475917D01*
X143319947Y-116483358D01*
X143331573Y-116491981D01*
X143342298Y-116501702D01*
X143352019Y-116512427D01*
X143360642Y-116524053D01*
X143368083Y-116536469D01*
X143374272Y-116549554D01*
X143379149Y-116563183D01*
X143382666Y-116577224D01*
X143384790Y-116591542D01*
X143385500Y-116606000D01*
X143385500Y-116901000D01*
X143384790Y-116915458D01*
X143382666Y-116929776D01*
X143379149Y-116943817D01*
X143374272Y-116957446D01*
X143368083Y-116970531D01*
X143360642Y-116982947D01*
X143352019Y-116994573D01*
X143342298Y-117005298D01*
X143331573Y-117015019D01*
X143319947Y-117023642D01*
X143307531Y-117031083D01*
X143294446Y-117037272D01*
X143280817Y-117042149D01*
X143266776Y-117045666D01*
X143252458Y-117047790D01*
X143238000Y-117048500D01*
X142893000Y-117048500D01*
X142878542Y-117047790D01*
X142864224Y-117045666D01*
X142850183Y-117042149D01*
X142836554Y-117037272D01*
X142823469Y-117031083D01*
X142811053Y-117023642D01*
X142799427Y-117015019D01*
X142788702Y-117005298D01*
X142778981Y-116994573D01*
X142770358Y-116982947D01*
X142762917Y-116970531D01*
X142756728Y-116957446D01*
X142751851Y-116943817D01*
X142748334Y-116929776D01*
X142746210Y-116915458D01*
X142745500Y-116901000D01*
X142745500Y-116606000D01*
X142746210Y-116591542D01*
X142748334Y-116577224D01*
X142751851Y-116563183D01*
X142756728Y-116549554D01*
X142762917Y-116536469D01*
X142770358Y-116524053D01*
X142778981Y-116512427D01*
X142788702Y-116501702D01*
X142799427Y-116491981D01*
X142811053Y-116483358D01*
X142823469Y-116475917D01*
X142836554Y-116469728D01*
X142850183Y-116464851D01*
X142864224Y-116461334D01*
X142878542Y-116459210D01*
X142893000Y-116458500D01*
X143238000Y-116458500D01*
X143252458Y-116459210D01*
G37*
G04 #@! TD.AperFunction*
G04 #@! TA.AperFunction,SMDPad,CuDef*
G36*
X143239758Y-113639810D02*
G01*
X143254076Y-113641934D01*
X143268117Y-113645451D01*
X143281746Y-113650328D01*
X143294831Y-113656517D01*
X143307247Y-113663958D01*
X143318873Y-113672581D01*
X143329598Y-113682302D01*
X143339319Y-113693027D01*
X143347942Y-113704653D01*
X143355383Y-113717069D01*
X143361572Y-113730154D01*
X143366449Y-113743783D01*
X143369966Y-113757824D01*
X143372090Y-113772142D01*
X143372800Y-113786600D01*
X143372800Y-114081600D01*
X143372090Y-114096058D01*
X143369966Y-114110376D01*
X143366449Y-114124417D01*
X143361572Y-114138046D01*
X143355383Y-114151131D01*
X143347942Y-114163547D01*
X143339319Y-114175173D01*
X143329598Y-114185898D01*
X143318873Y-114195619D01*
X143307247Y-114204242D01*
X143294831Y-114211683D01*
X143281746Y-114217872D01*
X143268117Y-114222749D01*
X143254076Y-114226266D01*
X143239758Y-114228390D01*
X143225300Y-114229100D01*
X142880300Y-114229100D01*
X142865842Y-114228390D01*
X142851524Y-114226266D01*
X142837483Y-114222749D01*
X142823854Y-114217872D01*
X142810769Y-114211683D01*
X142798353Y-114204242D01*
X142786727Y-114195619D01*
X142776002Y-114185898D01*
X142766281Y-114175173D01*
X142757658Y-114163547D01*
X142750217Y-114151131D01*
X142744028Y-114138046D01*
X142739151Y-114124417D01*
X142735634Y-114110376D01*
X142733510Y-114096058D01*
X142732800Y-114081600D01*
X142732800Y-113786600D01*
X142733510Y-113772142D01*
X142735634Y-113757824D01*
X142739151Y-113743783D01*
X142744028Y-113730154D01*
X142750217Y-113717069D01*
X142757658Y-113704653D01*
X142766281Y-113693027D01*
X142776002Y-113682302D01*
X142786727Y-113672581D01*
X142798353Y-113663958D01*
X142810769Y-113656517D01*
X142823854Y-113650328D01*
X142837483Y-113645451D01*
X142851524Y-113641934D01*
X142865842Y-113639810D01*
X142880300Y-113639100D01*
X143225300Y-113639100D01*
X143239758Y-113639810D01*
G37*
G04 #@! TD.AperFunction*
G04 #@! TA.AperFunction,SMDPad,CuDef*
G36*
X143239758Y-112669810D02*
G01*
X143254076Y-112671934D01*
X143268117Y-112675451D01*
X143281746Y-112680328D01*
X143294831Y-112686517D01*
X143307247Y-112693958D01*
X143318873Y-112702581D01*
X143329598Y-112712302D01*
X143339319Y-112723027D01*
X143347942Y-112734653D01*
X143355383Y-112747069D01*
X143361572Y-112760154D01*
X143366449Y-112773783D01*
X143369966Y-112787824D01*
X143372090Y-112802142D01*
X143372800Y-112816600D01*
X143372800Y-113111600D01*
X143372090Y-113126058D01*
X143369966Y-113140376D01*
X143366449Y-113154417D01*
X143361572Y-113168046D01*
X143355383Y-113181131D01*
X143347942Y-113193547D01*
X143339319Y-113205173D01*
X143329598Y-113215898D01*
X143318873Y-113225619D01*
X143307247Y-113234242D01*
X143294831Y-113241683D01*
X143281746Y-113247872D01*
X143268117Y-113252749D01*
X143254076Y-113256266D01*
X143239758Y-113258390D01*
X143225300Y-113259100D01*
X142880300Y-113259100D01*
X142865842Y-113258390D01*
X142851524Y-113256266D01*
X142837483Y-113252749D01*
X142823854Y-113247872D01*
X142810769Y-113241683D01*
X142798353Y-113234242D01*
X142786727Y-113225619D01*
X142776002Y-113215898D01*
X142766281Y-113205173D01*
X142757658Y-113193547D01*
X142750217Y-113181131D01*
X142744028Y-113168046D01*
X142739151Y-113154417D01*
X142735634Y-113140376D01*
X142733510Y-113126058D01*
X142732800Y-113111600D01*
X142732800Y-112816600D01*
X142733510Y-112802142D01*
X142735634Y-112787824D01*
X142739151Y-112773783D01*
X142744028Y-112760154D01*
X142750217Y-112747069D01*
X142757658Y-112734653D01*
X142766281Y-112723027D01*
X142776002Y-112712302D01*
X142786727Y-112702581D01*
X142798353Y-112693958D01*
X142810769Y-112686517D01*
X142823854Y-112680328D01*
X142837483Y-112675451D01*
X142851524Y-112671934D01*
X142865842Y-112669810D01*
X142880300Y-112669100D01*
X143225300Y-112669100D01*
X143239758Y-112669810D01*
G37*
G04 #@! TD.AperFunction*
D15*
X158750000Y-115874800D03*
X145859500Y-115684300D03*
X145859500Y-113944400D03*
X143027400Y-113944400D03*
D16*
X143090900Y-112926000D02*
X143052800Y-112964100D01*
X145846800Y-112926000D02*
X143090900Y-112926000D01*
X137797400Y-112964100D02*
X137718800Y-113042700D01*
X143052800Y-112964100D02*
X137797400Y-112964100D01*
X148447900Y-116520100D02*
X148463000Y-116535200D01*
X154559000Y-115354100D02*
X153309000Y-115354100D01*
X148447900Y-114071400D02*
X148463000Y-115354100D01*
X153309000Y-115354100D02*
X148463000Y-115354100D01*
X148463000Y-115354100D02*
X148447900Y-116520100D01*
X148152900Y-114071400D02*
X147352800Y-114871500D01*
X148447900Y-114071400D02*
X148152900Y-114071400D01*
X147352800Y-114871500D02*
X144767300Y-114871500D01*
X144767300Y-114871500D02*
X144526000Y-115112800D01*
X144526000Y-115112800D02*
X144526000Y-116420900D01*
X144193400Y-116753500D02*
X143065500Y-116753500D01*
X144526000Y-116420900D02*
X144193400Y-116753500D01*
X158762700Y-114881800D02*
X158737300Y-114907200D01*
X158762700Y-112765700D02*
X158762700Y-114881800D01*
X154607400Y-112765700D02*
X154559000Y-112814100D01*
X158762700Y-112765700D02*
X154607400Y-112765700D01*
X158087000Y-104559100D02*
X156337000Y-104559100D01*
X158762700Y-111795700D02*
X158762700Y-105234800D01*
X158762700Y-105234800D02*
X158087000Y-104559100D01*
X149433000Y-116855200D02*
X149440900Y-116863100D01*
X149433000Y-116535200D02*
X149433000Y-116855200D01*
X149440900Y-116863100D02*
X149440900Y-117348000D01*
X149440900Y-117348000D02*
X149009100Y-117779800D01*
X149009100Y-117779800D02*
X146354800Y-117779800D01*
X145859500Y-117284500D02*
X145859500Y-116702700D01*
X146354800Y-117779800D02*
X145859500Y-117284500D01*
X138968800Y-114312700D02*
X140436600Y-115780500D01*
X137718800Y-114312700D02*
X138968800Y-114312700D01*
X140436600Y-115780500D02*
X140436600Y-117373400D01*
X140843000Y-117779800D02*
X146354800Y-117779800D01*
X140436600Y-117373400D02*
X140843000Y-117779800D01*
X149430600Y-114084100D02*
X149417900Y-114071400D01*
X154559000Y-114084100D02*
X149430600Y-114084100D01*
X149417900Y-113751400D02*
X146740700Y-111074200D01*
X149417900Y-114071400D02*
X149417900Y-113751400D01*
X146740700Y-111074200D02*
X136398000Y-111074200D01*
X136398000Y-111074200D02*
X135496300Y-111975900D01*
X135496300Y-111975900D02*
X135496300Y-114833400D01*
X136245600Y-115582700D02*
X137718800Y-115582700D01*
X135496300Y-114833400D02*
X136245600Y-115582700D01*
D17*
G36*
X160757000Y-117805600D02*
G01*
X150199799Y-117805600D01*
X150262489Y-117688313D01*
X150313095Y-117521490D01*
X150325900Y-117391477D01*
X150325900Y-117391467D01*
X150330181Y-117348001D01*
X150325900Y-117304535D01*
X150325900Y-116943626D01*
X150350977Y-116860957D01*
X150366072Y-116707700D01*
X150366072Y-116362700D01*
X150353898Y-116239100D01*
X153282982Y-116239100D01*
X153357815Y-116330285D01*
X153454506Y-116409637D01*
X153564820Y-116468602D01*
X153684518Y-116504912D01*
X153809000Y-116517172D01*
X155309000Y-116517172D01*
X155433482Y-116504912D01*
X155553180Y-116468602D01*
X155663494Y-116409637D01*
X155760185Y-116330285D01*
X155839537Y-116233594D01*
X155872353Y-116172200D01*
X157779228Y-116172200D01*
X157791488Y-116296682D01*
X157827798Y-116416380D01*
X157886763Y-116526694D01*
X157966115Y-116623385D01*
X158062806Y-116702737D01*
X158173120Y-116761702D01*
X158292818Y-116798012D01*
X158417300Y-116810272D01*
X158451550Y-116807200D01*
X158610300Y-116648450D01*
X158610300Y-116004200D01*
X158864300Y-116004200D01*
X158864300Y-116648450D01*
X159023050Y-116807200D01*
X159057300Y-116810272D01*
X159181782Y-116798012D01*
X159301480Y-116761702D01*
X159411794Y-116702737D01*
X159508485Y-116623385D01*
X159587837Y-116526694D01*
X159646802Y-116416380D01*
X159683112Y-116296682D01*
X159695372Y-116172200D01*
X159692300Y-116162950D01*
X159533550Y-116004200D01*
X158864300Y-116004200D01*
X158610300Y-116004200D01*
X157941050Y-116004200D01*
X157782300Y-116162950D01*
X157779228Y-116172200D01*
X155872353Y-116172200D01*
X155898502Y-116123280D01*
X155934812Y-116003582D01*
X155947072Y-115879100D01*
X155947072Y-114829100D01*
X155934812Y-114704618D01*
X155898502Y-114584920D01*
X155863907Y-114520198D01*
X155927215Y-114311500D01*
X155949612Y-114084100D01*
X155927215Y-113856700D01*
X155864725Y-113650700D01*
X157877700Y-113650700D01*
X157877701Y-114386720D01*
X157839026Y-114459075D01*
X157794323Y-114606443D01*
X157779228Y-114759700D01*
X157779228Y-115054700D01*
X157794323Y-115207957D01*
X157831612Y-115330884D01*
X157827798Y-115338020D01*
X157791488Y-115457718D01*
X157779228Y-115582200D01*
X157782300Y-115591450D01*
X157941050Y-115750200D01*
X158207537Y-115750200D01*
X158264175Y-115780474D01*
X158411543Y-115825177D01*
X158564800Y-115840272D01*
X158909800Y-115840272D01*
X159063057Y-115825177D01*
X159210425Y-115780474D01*
X159267063Y-115750200D01*
X159533550Y-115750200D01*
X159692300Y-115591450D01*
X159695372Y-115582200D01*
X159683112Y-115457718D01*
X159646802Y-115338020D01*
X159642988Y-115330884D01*
X159680277Y-115207957D01*
X159695372Y-115054700D01*
X159695372Y-114759700D01*
X159680277Y-114606443D01*
X159647700Y-114499050D01*
X159647700Y-113238659D01*
X159660974Y-113213825D01*
X159705677Y-113066457D01*
X159720772Y-112913200D01*
X159720772Y-112618200D01*
X159705677Y-112464943D01*
X159660974Y-112317575D01*
X159641264Y-112280700D01*
X159660974Y-112243825D01*
X159705677Y-112096457D01*
X159720772Y-111943200D01*
X159720772Y-111648200D01*
X159705677Y-111494943D01*
X159660974Y-111347575D01*
X159647700Y-111322741D01*
X159647700Y-105278265D01*
X159651981Y-105234799D01*
X159647700Y-105191333D01*
X159647700Y-105191323D01*
X159634895Y-105061310D01*
X159584289Y-104894487D01*
X159502111Y-104740741D01*
X159391517Y-104605983D01*
X159357749Y-104578270D01*
X158743534Y-103964056D01*
X158715817Y-103930283D01*
X158581059Y-103819689D01*
X158427313Y-103737511D01*
X158260490Y-103686905D01*
X158225072Y-103683417D01*
X158225072Y-103309100D01*
X158212812Y-103184618D01*
X158176502Y-103064920D01*
X158117537Y-102954606D01*
X158038185Y-102857915D01*
X157941494Y-102778563D01*
X157831180Y-102719598D01*
X157711482Y-102683288D01*
X157587000Y-102671028D01*
X155087000Y-102671028D01*
X154962518Y-102683288D01*
X154842820Y-102719598D01*
X154732506Y-102778563D01*
X154635815Y-102857915D01*
X154556463Y-102954606D01*
X154497498Y-103064920D01*
X154461188Y-103184618D01*
X154448928Y-103309100D01*
X154448928Y-105809100D01*
X154461188Y-105933582D01*
X154497498Y-106053280D01*
X154556463Y-106163594D01*
X154635815Y-106260285D01*
X154732506Y-106339637D01*
X154842820Y-106398602D01*
X154962518Y-106434912D01*
X155087000Y-106447172D01*
X157587000Y-106447172D01*
X157711482Y-106434912D01*
X157831180Y-106398602D01*
X157877701Y-106373736D01*
X157877700Y-111322741D01*
X157864426Y-111347575D01*
X157819723Y-111494943D01*
X157804628Y-111648200D01*
X157804628Y-111880700D01*
X155475166Y-111880700D01*
X155431579Y-111844929D01*
X155230060Y-111737215D01*
X155011400Y-111670885D01*
X154840979Y-111654100D01*
X154277021Y-111654100D01*
X154106600Y-111670885D01*
X153887940Y-111737215D01*
X153686421Y-111844929D01*
X153509788Y-111989888D01*
X153364829Y-112166521D01*
X153257115Y-112368040D01*
X153190785Y-112586700D01*
X153168388Y-112814100D01*
X153190785Y-113041500D01*
X153238593Y-113199100D01*
X150109514Y-113199100D01*
X150074432Y-113156353D01*
X150074430Y-113156351D01*
X150046717Y-113122583D01*
X150012949Y-113094870D01*
X147397234Y-110479156D01*
X147369517Y-110445383D01*
X147234759Y-110334789D01*
X147081013Y-110252611D01*
X146914190Y-110202005D01*
X146784177Y-110189200D01*
X146784169Y-110189200D01*
X146740700Y-110184919D01*
X146697231Y-110189200D01*
X136441465Y-110189200D01*
X136397999Y-110184919D01*
X136354533Y-110189200D01*
X136354523Y-110189200D01*
X136224510Y-110202005D01*
X136057687Y-110252611D01*
X135903941Y-110334789D01*
X135903939Y-110334790D01*
X135903940Y-110334790D01*
X135802953Y-110417668D01*
X135802951Y-110417670D01*
X135769183Y-110445383D01*
X135741470Y-110479151D01*
X134901256Y-111319366D01*
X134867483Y-111347083D01*
X134756889Y-111481842D01*
X134674711Y-111635588D01*
X134624105Y-111802411D01*
X134611300Y-111932424D01*
X134611300Y-111932431D01*
X134607019Y-111975900D01*
X134611300Y-112019369D01*
X134611301Y-114789921D01*
X134607019Y-114833400D01*
X134624105Y-115006890D01*
X134674712Y-115173713D01*
X134756890Y-115327459D01*
X134839768Y-115428446D01*
X134839771Y-115428449D01*
X134867484Y-115462217D01*
X134901251Y-115489929D01*
X135589070Y-116177749D01*
X135616783Y-116211517D01*
X135650551Y-116239230D01*
X135650553Y-116239232D01*
X135675178Y-116259441D01*
X135751541Y-116322111D01*
X135905287Y-116404289D01*
X136072110Y-116454895D01*
X136202123Y-116467700D01*
X136202133Y-116467700D01*
X136245599Y-116471981D01*
X136289065Y-116467700D01*
X136442782Y-116467700D01*
X136517615Y-116558885D01*
X136614306Y-116638237D01*
X136724620Y-116697202D01*
X136844318Y-116733512D01*
X136968800Y-116745772D01*
X138468800Y-116745772D01*
X138593282Y-116733512D01*
X138712980Y-116697202D01*
X138823294Y-116638237D01*
X138919985Y-116558885D01*
X138999337Y-116462194D01*
X139058302Y-116351880D01*
X139094612Y-116232182D01*
X139106872Y-116107700D01*
X139106872Y-115702351D01*
X139551600Y-116147079D01*
X139551601Y-117329921D01*
X139547319Y-117373400D01*
X139564405Y-117546890D01*
X139615012Y-117713713D01*
X139664126Y-117805600D01*
X134010000Y-117805600D01*
X134010000Y-104373444D01*
X135808400Y-104373444D01*
X135808400Y-104744756D01*
X135880839Y-105108934D01*
X136022934Y-105451982D01*
X136229225Y-105760718D01*
X136491782Y-106023275D01*
X136800518Y-106229566D01*
X137143566Y-106371661D01*
X137507744Y-106444100D01*
X137879056Y-106444100D01*
X138243234Y-106371661D01*
X138586282Y-106229566D01*
X138895018Y-106023275D01*
X139109193Y-105809100D01*
X140885328Y-105809100D01*
X140897588Y-105933582D01*
X140933898Y-106053280D01*
X140992863Y-106163594D01*
X141072215Y-106260285D01*
X141168906Y-106339637D01*
X141279220Y-106398602D01*
X141398918Y-106434912D01*
X141523400Y-106447172D01*
X142487650Y-106444100D01*
X142646400Y-106285350D01*
X142646400Y-104686100D01*
X142900400Y-104686100D01*
X142900400Y-106285350D01*
X143059150Y-106444100D01*
X144023400Y-106447172D01*
X144147882Y-106434912D01*
X144267580Y-106398602D01*
X144377894Y-106339637D01*
X144474585Y-106260285D01*
X144553937Y-106163594D01*
X144612902Y-106053280D01*
X144649212Y-105933582D01*
X144655207Y-105872705D01*
X150123000Y-105872705D01*
X150248914Y-106162677D01*
X150581126Y-106328533D01*
X150939312Y-106426390D01*
X151309706Y-106452489D01*
X151678075Y-106405825D01*
X152030262Y-106288194D01*
X152265086Y-106162677D01*
X152391000Y-105872705D01*
X151257000Y-104738705D01*
X150123000Y-105872705D01*
X144655207Y-105872705D01*
X144661472Y-105809100D01*
X144658400Y-104844850D01*
X144499650Y-104686100D01*
X142900400Y-104686100D01*
X142646400Y-104686100D01*
X141047150Y-104686100D01*
X140888400Y-104844850D01*
X140885328Y-105809100D01*
X139109193Y-105809100D01*
X139157575Y-105760718D01*
X139363866Y-105451982D01*
X139505961Y-105108934D01*
X139578400Y-104744756D01*
X139578400Y-104611806D01*
X149363611Y-104611806D01*
X149410275Y-104980175D01*
X149527906Y-105332362D01*
X149653423Y-105567186D01*
X149943395Y-105693100D01*
X151077395Y-104559100D01*
X151436605Y-104559100D01*
X152570605Y-105693100D01*
X152860577Y-105567186D01*
X153026433Y-105234974D01*
X153124290Y-104876788D01*
X153150389Y-104506394D01*
X153103725Y-104138025D01*
X152986094Y-103785838D01*
X152860577Y-103551014D01*
X152570605Y-103425100D01*
X151436605Y-104559100D01*
X151077395Y-104559100D01*
X149943395Y-103425100D01*
X149653423Y-103551014D01*
X149487567Y-103883226D01*
X149389710Y-104241412D01*
X149363611Y-104611806D01*
X139578400Y-104611806D01*
X139578400Y-104373444D01*
X139505961Y-104009266D01*
X139363866Y-103666218D01*
X139157575Y-103357482D01*
X139109193Y-103309100D01*
X140885328Y-103309100D01*
X140888400Y-104273350D01*
X141047150Y-104432100D01*
X142646400Y-104432100D01*
X142646400Y-102832850D01*
X142900400Y-102832850D01*
X142900400Y-104432100D01*
X144499650Y-104432100D01*
X144658400Y-104273350D01*
X144661472Y-103309100D01*
X144655208Y-103245495D01*
X150123000Y-103245495D01*
X151257000Y-104379495D01*
X152391000Y-103245495D01*
X152265086Y-102955523D01*
X151932874Y-102789667D01*
X151574688Y-102691810D01*
X151204294Y-102665711D01*
X150835925Y-102712375D01*
X150483738Y-102830006D01*
X150248914Y-102955523D01*
X150123000Y-103245495D01*
X144655208Y-103245495D01*
X144649212Y-103184618D01*
X144612902Y-103064920D01*
X144553937Y-102954606D01*
X144474585Y-102857915D01*
X144377894Y-102778563D01*
X144267580Y-102719598D01*
X144147882Y-102683288D01*
X144023400Y-102671028D01*
X143059150Y-102674100D01*
X142900400Y-102832850D01*
X142646400Y-102832850D01*
X142487650Y-102674100D01*
X141523400Y-102671028D01*
X141398918Y-102683288D01*
X141279220Y-102719598D01*
X141168906Y-102778563D01*
X141072215Y-102857915D01*
X140992863Y-102954606D01*
X140933898Y-103064920D01*
X140897588Y-103184618D01*
X140885328Y-103309100D01*
X139109193Y-103309100D01*
X138895018Y-103094925D01*
X138586282Y-102888634D01*
X138243234Y-102746539D01*
X137879056Y-102674100D01*
X137507744Y-102674100D01*
X137143566Y-102746539D01*
X136800518Y-102888634D01*
X136491782Y-103094925D01*
X136229225Y-103357482D01*
X136022934Y-103666218D01*
X135880839Y-104009266D01*
X135808400Y-104373444D01*
X134010000Y-104373444D01*
X134010000Y-99720000D01*
X160757001Y-99720000D01*
X160757000Y-117805600D01*
G37*
X160757000Y-117805600D02*
X150199799Y-117805600D01*
X150262489Y-117688313D01*
X150313095Y-117521490D01*
X150325900Y-117391477D01*
X150325900Y-117391467D01*
X150330181Y-117348001D01*
X150325900Y-117304535D01*
X150325900Y-116943626D01*
X150350977Y-116860957D01*
X150366072Y-116707700D01*
X150366072Y-116362700D01*
X150353898Y-116239100D01*
X153282982Y-116239100D01*
X153357815Y-116330285D01*
X153454506Y-116409637D01*
X153564820Y-116468602D01*
X153684518Y-116504912D01*
X153809000Y-116517172D01*
X155309000Y-116517172D01*
X155433482Y-116504912D01*
X155553180Y-116468602D01*
X155663494Y-116409637D01*
X155760185Y-116330285D01*
X155839537Y-116233594D01*
X155872353Y-116172200D01*
X157779228Y-116172200D01*
X157791488Y-116296682D01*
X157827798Y-116416380D01*
X157886763Y-116526694D01*
X157966115Y-116623385D01*
X158062806Y-116702737D01*
X158173120Y-116761702D01*
X158292818Y-116798012D01*
X158417300Y-116810272D01*
X158451550Y-116807200D01*
X158610300Y-116648450D01*
X158610300Y-116004200D01*
X158864300Y-116004200D01*
X158864300Y-116648450D01*
X159023050Y-116807200D01*
X159057300Y-116810272D01*
X159181782Y-116798012D01*
X159301480Y-116761702D01*
X159411794Y-116702737D01*
X159508485Y-116623385D01*
X159587837Y-116526694D01*
X159646802Y-116416380D01*
X159683112Y-116296682D01*
X159695372Y-116172200D01*
X159692300Y-116162950D01*
X159533550Y-116004200D01*
X158864300Y-116004200D01*
X158610300Y-116004200D01*
X157941050Y-116004200D01*
X157782300Y-116162950D01*
X157779228Y-116172200D01*
X155872353Y-116172200D01*
X155898502Y-116123280D01*
X155934812Y-116003582D01*
X155947072Y-115879100D01*
X155947072Y-114829100D01*
X155934812Y-114704618D01*
X155898502Y-114584920D01*
X155863907Y-114520198D01*
X155927215Y-114311500D01*
X155949612Y-114084100D01*
X155927215Y-113856700D01*
X155864725Y-113650700D01*
X157877700Y-113650700D01*
X157877701Y-114386720D01*
X157839026Y-114459075D01*
X157794323Y-114606443D01*
X157779228Y-114759700D01*
X157779228Y-115054700D01*
X157794323Y-115207957D01*
X157831612Y-115330884D01*
X157827798Y-115338020D01*
X157791488Y-115457718D01*
X157779228Y-115582200D01*
X157782300Y-115591450D01*
X157941050Y-115750200D01*
X158207537Y-115750200D01*
X158264175Y-115780474D01*
X158411543Y-115825177D01*
X158564800Y-115840272D01*
X158909800Y-115840272D01*
X159063057Y-115825177D01*
X159210425Y-115780474D01*
X159267063Y-115750200D01*
X159533550Y-115750200D01*
X159692300Y-115591450D01*
X159695372Y-115582200D01*
X159683112Y-115457718D01*
X159646802Y-115338020D01*
X159642988Y-115330884D01*
X159680277Y-115207957D01*
X159695372Y-115054700D01*
X159695372Y-114759700D01*
X159680277Y-114606443D01*
X159647700Y-114499050D01*
X159647700Y-113238659D01*
X159660974Y-113213825D01*
X159705677Y-113066457D01*
X159720772Y-112913200D01*
X159720772Y-112618200D01*
X159705677Y-112464943D01*
X159660974Y-112317575D01*
X159641264Y-112280700D01*
X159660974Y-112243825D01*
X159705677Y-112096457D01*
X159720772Y-111943200D01*
X159720772Y-111648200D01*
X159705677Y-111494943D01*
X159660974Y-111347575D01*
X159647700Y-111322741D01*
X159647700Y-105278265D01*
X159651981Y-105234799D01*
X159647700Y-105191333D01*
X159647700Y-105191323D01*
X159634895Y-105061310D01*
X159584289Y-104894487D01*
X159502111Y-104740741D01*
X159391517Y-104605983D01*
X159357749Y-104578270D01*
X158743534Y-103964056D01*
X158715817Y-103930283D01*
X158581059Y-103819689D01*
X158427313Y-103737511D01*
X158260490Y-103686905D01*
X158225072Y-103683417D01*
X158225072Y-103309100D01*
X158212812Y-103184618D01*
X158176502Y-103064920D01*
X158117537Y-102954606D01*
X158038185Y-102857915D01*
X157941494Y-102778563D01*
X157831180Y-102719598D01*
X157711482Y-102683288D01*
X157587000Y-102671028D01*
X155087000Y-102671028D01*
X154962518Y-102683288D01*
X154842820Y-102719598D01*
X154732506Y-102778563D01*
X154635815Y-102857915D01*
X154556463Y-102954606D01*
X154497498Y-103064920D01*
X154461188Y-103184618D01*
X154448928Y-103309100D01*
X154448928Y-105809100D01*
X154461188Y-105933582D01*
X154497498Y-106053280D01*
X154556463Y-106163594D01*
X154635815Y-106260285D01*
X154732506Y-106339637D01*
X154842820Y-106398602D01*
X154962518Y-106434912D01*
X155087000Y-106447172D01*
X157587000Y-106447172D01*
X157711482Y-106434912D01*
X157831180Y-106398602D01*
X157877701Y-106373736D01*
X157877700Y-111322741D01*
X157864426Y-111347575D01*
X157819723Y-111494943D01*
X157804628Y-111648200D01*
X157804628Y-111880700D01*
X155475166Y-111880700D01*
X155431579Y-111844929D01*
X155230060Y-111737215D01*
X155011400Y-111670885D01*
X154840979Y-111654100D01*
X154277021Y-111654100D01*
X154106600Y-111670885D01*
X153887940Y-111737215D01*
X153686421Y-111844929D01*
X153509788Y-111989888D01*
X153364829Y-112166521D01*
X153257115Y-112368040D01*
X153190785Y-112586700D01*
X153168388Y-112814100D01*
X153190785Y-113041500D01*
X153238593Y-113199100D01*
X150109514Y-113199100D01*
X150074432Y-113156353D01*
X150074430Y-113156351D01*
X150046717Y-113122583D01*
X150012949Y-113094870D01*
X147397234Y-110479156D01*
X147369517Y-110445383D01*
X147234759Y-110334789D01*
X147081013Y-110252611D01*
X146914190Y-110202005D01*
X146784177Y-110189200D01*
X146784169Y-110189200D01*
X146740700Y-110184919D01*
X146697231Y-110189200D01*
X136441465Y-110189200D01*
X136397999Y-110184919D01*
X136354533Y-110189200D01*
X136354523Y-110189200D01*
X136224510Y-110202005D01*
X136057687Y-110252611D01*
X135903941Y-110334789D01*
X135903939Y-110334790D01*
X135903940Y-110334790D01*
X135802953Y-110417668D01*
X135802951Y-110417670D01*
X135769183Y-110445383D01*
X135741470Y-110479151D01*
X134901256Y-111319366D01*
X134867483Y-111347083D01*
X134756889Y-111481842D01*
X134674711Y-111635588D01*
X134624105Y-111802411D01*
X134611300Y-111932424D01*
X134611300Y-111932431D01*
X134607019Y-111975900D01*
X134611300Y-112019369D01*
X134611301Y-114789921D01*
X134607019Y-114833400D01*
X134624105Y-115006890D01*
X134674712Y-115173713D01*
X134756890Y-115327459D01*
X134839768Y-115428446D01*
X134839771Y-115428449D01*
X134867484Y-115462217D01*
X134901251Y-115489929D01*
X135589070Y-116177749D01*
X135616783Y-116211517D01*
X135650551Y-116239230D01*
X135650553Y-116239232D01*
X135675178Y-116259441D01*
X135751541Y-116322111D01*
X135905287Y-116404289D01*
X136072110Y-116454895D01*
X136202123Y-116467700D01*
X136202133Y-116467700D01*
X136245599Y-116471981D01*
X136289065Y-116467700D01*
X136442782Y-116467700D01*
X136517615Y-116558885D01*
X136614306Y-116638237D01*
X136724620Y-116697202D01*
X136844318Y-116733512D01*
X136968800Y-116745772D01*
X138468800Y-116745772D01*
X138593282Y-116733512D01*
X138712980Y-116697202D01*
X138823294Y-116638237D01*
X138919985Y-116558885D01*
X138999337Y-116462194D01*
X139058302Y-116351880D01*
X139094612Y-116232182D01*
X139106872Y-116107700D01*
X139106872Y-115702351D01*
X139551600Y-116147079D01*
X139551601Y-117329921D01*
X139547319Y-117373400D01*
X139564405Y-117546890D01*
X139615012Y-117713713D01*
X139664126Y-117805600D01*
X134010000Y-117805600D01*
X134010000Y-104373444D01*
X135808400Y-104373444D01*
X135808400Y-104744756D01*
X135880839Y-105108934D01*
X136022934Y-105451982D01*
X136229225Y-105760718D01*
X136491782Y-106023275D01*
X136800518Y-106229566D01*
X137143566Y-106371661D01*
X137507744Y-106444100D01*
X137879056Y-106444100D01*
X138243234Y-106371661D01*
X138586282Y-106229566D01*
X138895018Y-106023275D01*
X139109193Y-105809100D01*
X140885328Y-105809100D01*
X140897588Y-105933582D01*
X140933898Y-106053280D01*
X140992863Y-106163594D01*
X141072215Y-106260285D01*
X141168906Y-106339637D01*
X141279220Y-106398602D01*
X141398918Y-106434912D01*
X141523400Y-106447172D01*
X142487650Y-106444100D01*
X142646400Y-106285350D01*
X142646400Y-104686100D01*
X142900400Y-104686100D01*
X142900400Y-106285350D01*
X143059150Y-106444100D01*
X144023400Y-106447172D01*
X144147882Y-106434912D01*
X144267580Y-106398602D01*
X144377894Y-106339637D01*
X144474585Y-106260285D01*
X144553937Y-106163594D01*
X144612902Y-106053280D01*
X144649212Y-105933582D01*
X144655207Y-105872705D01*
X150123000Y-105872705D01*
X150248914Y-106162677D01*
X150581126Y-106328533D01*
X150939312Y-106426390D01*
X151309706Y-106452489D01*
X151678075Y-106405825D01*
X152030262Y-106288194D01*
X152265086Y-106162677D01*
X152391000Y-105872705D01*
X151257000Y-104738705D01*
X150123000Y-105872705D01*
X144655207Y-105872705D01*
X144661472Y-105809100D01*
X144658400Y-104844850D01*
X144499650Y-104686100D01*
X142900400Y-104686100D01*
X142646400Y-104686100D01*
X141047150Y-104686100D01*
X140888400Y-104844850D01*
X140885328Y-105809100D01*
X139109193Y-105809100D01*
X139157575Y-105760718D01*
X139363866Y-105451982D01*
X139505961Y-105108934D01*
X139578400Y-104744756D01*
X139578400Y-104611806D01*
X149363611Y-104611806D01*
X149410275Y-104980175D01*
X149527906Y-105332362D01*
X149653423Y-105567186D01*
X149943395Y-105693100D01*
X151077395Y-104559100D01*
X151436605Y-104559100D01*
X152570605Y-105693100D01*
X152860577Y-105567186D01*
X153026433Y-105234974D01*
X153124290Y-104876788D01*
X153150389Y-104506394D01*
X153103725Y-104138025D01*
X152986094Y-103785838D01*
X152860577Y-103551014D01*
X152570605Y-103425100D01*
X151436605Y-104559100D01*
X151077395Y-104559100D01*
X149943395Y-103425100D01*
X149653423Y-103551014D01*
X149487567Y-103883226D01*
X149389710Y-104241412D01*
X149363611Y-104611806D01*
X139578400Y-104611806D01*
X139578400Y-104373444D01*
X139505961Y-104009266D01*
X139363866Y-103666218D01*
X139157575Y-103357482D01*
X139109193Y-103309100D01*
X140885328Y-103309100D01*
X140888400Y-104273350D01*
X141047150Y-104432100D01*
X142646400Y-104432100D01*
X142646400Y-102832850D01*
X142900400Y-102832850D01*
X142900400Y-104432100D01*
X144499650Y-104432100D01*
X144658400Y-104273350D01*
X144661472Y-103309100D01*
X144655208Y-103245495D01*
X150123000Y-103245495D01*
X151257000Y-104379495D01*
X152391000Y-103245495D01*
X152265086Y-102955523D01*
X151932874Y-102789667D01*
X151574688Y-102691810D01*
X151204294Y-102665711D01*
X150835925Y-102712375D01*
X150483738Y-102830006D01*
X150248914Y-102955523D01*
X150123000Y-103245495D01*
X144655208Y-103245495D01*
X144649212Y-103184618D01*
X144612902Y-103064920D01*
X144553937Y-102954606D01*
X144474585Y-102857915D01*
X144377894Y-102778563D01*
X144267580Y-102719598D01*
X144147882Y-102683288D01*
X144023400Y-102671028D01*
X143059150Y-102674100D01*
X142900400Y-102832850D01*
X142646400Y-102832850D01*
X142487650Y-102674100D01*
X141523400Y-102671028D01*
X141398918Y-102683288D01*
X141279220Y-102719598D01*
X141168906Y-102778563D01*
X141072215Y-102857915D01*
X140992863Y-102954606D01*
X140933898Y-103064920D01*
X140897588Y-103184618D01*
X140885328Y-103309100D01*
X139109193Y-103309100D01*
X138895018Y-103094925D01*
X138586282Y-102888634D01*
X138243234Y-102746539D01*
X137879056Y-102674100D01*
X137507744Y-102674100D01*
X137143566Y-102746539D01*
X136800518Y-102888634D01*
X136491782Y-103094925D01*
X136229225Y-103357482D01*
X136022934Y-103666218D01*
X135880839Y-104009266D01*
X135808400Y-104373444D01*
X134010000Y-104373444D01*
X134010000Y-99720000D01*
X160757001Y-99720000D01*
X160757000Y-117805600D01*
G36*
X147716234Y-113301312D02*
G01*
X147658841Y-113331989D01*
X147658839Y-113331990D01*
X147658840Y-113331990D01*
X147557853Y-113414868D01*
X147557851Y-113414870D01*
X147524083Y-113442583D01*
X147496370Y-113476351D01*
X146986222Y-113986500D01*
X144810769Y-113986500D01*
X144767300Y-113982219D01*
X144723831Y-113986500D01*
X144723823Y-113986500D01*
X144593810Y-113999305D01*
X144426987Y-114049911D01*
X144273241Y-114132089D01*
X144138483Y-114242683D01*
X144110768Y-114276454D01*
X143983360Y-114403862D01*
X143998612Y-114353582D01*
X144010872Y-114229100D01*
X144007800Y-114219850D01*
X143849050Y-114061100D01*
X143179800Y-114061100D01*
X143179800Y-114705350D01*
X143338550Y-114864100D01*
X143340477Y-114864273D01*
X143192500Y-115012250D01*
X143192500Y-115656500D01*
X143212500Y-115656500D01*
X143212500Y-115820428D01*
X142893000Y-115820428D01*
X142739743Y-115835523D01*
X142592375Y-115880226D01*
X142535737Y-115910500D01*
X142269250Y-115910500D01*
X142110500Y-116069250D01*
X142107428Y-116078500D01*
X142119688Y-116202982D01*
X142155998Y-116322680D01*
X142159812Y-116329816D01*
X142122523Y-116452743D01*
X142107428Y-116606000D01*
X142107428Y-116894800D01*
X141321600Y-116894800D01*
X141321600Y-115823969D01*
X141325881Y-115780500D01*
X141321600Y-115737031D01*
X141321600Y-115737023D01*
X141308795Y-115607010D01*
X141295667Y-115563732D01*
X141258189Y-115440186D01*
X141176011Y-115286441D01*
X141093132Y-115185453D01*
X141093130Y-115185451D01*
X141065417Y-115151683D01*
X141031650Y-115123971D01*
X140136779Y-114229100D01*
X142094728Y-114229100D01*
X142106988Y-114353582D01*
X142143298Y-114473280D01*
X142202263Y-114583594D01*
X142281615Y-114680285D01*
X142378306Y-114759637D01*
X142488620Y-114818602D01*
X142608318Y-114854912D01*
X142654145Y-114859425D01*
X142621018Y-114862688D01*
X142501320Y-114898998D01*
X142391006Y-114957963D01*
X142294315Y-115037315D01*
X142214963Y-115134006D01*
X142155998Y-115244320D01*
X142119688Y-115364018D01*
X142107428Y-115488500D01*
X142110500Y-115497750D01*
X142269250Y-115656500D01*
X142938500Y-115656500D01*
X142938500Y-115012250D01*
X142779750Y-114853500D01*
X142777823Y-114853327D01*
X142925800Y-114705350D01*
X142925800Y-114061100D01*
X142256550Y-114061100D01*
X142097800Y-114219850D01*
X142094728Y-114229100D01*
X140136779Y-114229100D01*
X139756778Y-113849100D01*
X142618331Y-113849100D01*
X142727043Y-113882077D01*
X142880300Y-113897172D01*
X143225300Y-113897172D01*
X143378557Y-113882077D01*
X143525925Y-113837374D01*
X143575267Y-113811000D01*
X145412331Y-113811000D01*
X145521043Y-113843977D01*
X145674300Y-113859072D01*
X146019300Y-113859072D01*
X146172557Y-113843977D01*
X146319925Y-113799274D01*
X146376563Y-113769000D01*
X146643050Y-113769000D01*
X146801800Y-113610250D01*
X146804872Y-113601000D01*
X146792612Y-113476518D01*
X146756302Y-113356820D01*
X146752488Y-113349684D01*
X146789777Y-113226757D01*
X146804872Y-113073500D01*
X146804872Y-112778500D01*
X146789777Y-112625243D01*
X146745074Y-112477875D01*
X146672479Y-112342060D01*
X146574783Y-112223017D01*
X146455740Y-112125321D01*
X146319925Y-112052726D01*
X146172557Y-112008023D01*
X146019300Y-111992928D01*
X145674300Y-111992928D01*
X145521043Y-112008023D01*
X145412331Y-112041000D01*
X143326544Y-112041000D01*
X143225300Y-112031028D01*
X142880300Y-112031028D01*
X142727043Y-112046123D01*
X142618331Y-112079100D01*
X138598167Y-112079100D01*
X138591379Y-112073529D01*
X138389860Y-111965815D01*
X138368053Y-111959200D01*
X146374122Y-111959200D01*
X147716234Y-113301312D01*
G37*
X147716234Y-113301312D02*
X147658841Y-113331989D01*
X147658839Y-113331990D01*
X147658840Y-113331990D01*
X147557853Y-113414868D01*
X147557851Y-113414870D01*
X147524083Y-113442583D01*
X147496370Y-113476351D01*
X146986222Y-113986500D01*
X144810769Y-113986500D01*
X144767300Y-113982219D01*
X144723831Y-113986500D01*
X144723823Y-113986500D01*
X144593810Y-113999305D01*
X144426987Y-114049911D01*
X144273241Y-114132089D01*
X144138483Y-114242683D01*
X144110768Y-114276454D01*
X143983360Y-114403862D01*
X143998612Y-114353582D01*
X144010872Y-114229100D01*
X144007800Y-114219850D01*
X143849050Y-114061100D01*
X143179800Y-114061100D01*
X143179800Y-114705350D01*
X143338550Y-114864100D01*
X143340477Y-114864273D01*
X143192500Y-115012250D01*
X143192500Y-115656500D01*
X143212500Y-115656500D01*
X143212500Y-115820428D01*
X142893000Y-115820428D01*
X142739743Y-115835523D01*
X142592375Y-115880226D01*
X142535737Y-115910500D01*
X142269250Y-115910500D01*
X142110500Y-116069250D01*
X142107428Y-116078500D01*
X142119688Y-116202982D01*
X142155998Y-116322680D01*
X142159812Y-116329816D01*
X142122523Y-116452743D01*
X142107428Y-116606000D01*
X142107428Y-116894800D01*
X141321600Y-116894800D01*
X141321600Y-115823969D01*
X141325881Y-115780500D01*
X141321600Y-115737031D01*
X141321600Y-115737023D01*
X141308795Y-115607010D01*
X141295667Y-115563732D01*
X141258189Y-115440186D01*
X141176011Y-115286441D01*
X141093132Y-115185453D01*
X141093130Y-115185451D01*
X141065417Y-115151683D01*
X141031650Y-115123971D01*
X140136779Y-114229100D01*
X142094728Y-114229100D01*
X142106988Y-114353582D01*
X142143298Y-114473280D01*
X142202263Y-114583594D01*
X142281615Y-114680285D01*
X142378306Y-114759637D01*
X142488620Y-114818602D01*
X142608318Y-114854912D01*
X142654145Y-114859425D01*
X142621018Y-114862688D01*
X142501320Y-114898998D01*
X142391006Y-114957963D01*
X142294315Y-115037315D01*
X142214963Y-115134006D01*
X142155998Y-115244320D01*
X142119688Y-115364018D01*
X142107428Y-115488500D01*
X142110500Y-115497750D01*
X142269250Y-115656500D01*
X142938500Y-115656500D01*
X142938500Y-115012250D01*
X142779750Y-114853500D01*
X142777823Y-114853327D01*
X142925800Y-114705350D01*
X142925800Y-114061100D01*
X142256550Y-114061100D01*
X142097800Y-114219850D01*
X142094728Y-114229100D01*
X140136779Y-114229100D01*
X139756778Y-113849100D01*
X142618331Y-113849100D01*
X142727043Y-113882077D01*
X142880300Y-113897172D01*
X143225300Y-113897172D01*
X143378557Y-113882077D01*
X143525925Y-113837374D01*
X143575267Y-113811000D01*
X145412331Y-113811000D01*
X145521043Y-113843977D01*
X145674300Y-113859072D01*
X146019300Y-113859072D01*
X146172557Y-113843977D01*
X146319925Y-113799274D01*
X146376563Y-113769000D01*
X146643050Y-113769000D01*
X146801800Y-113610250D01*
X146804872Y-113601000D01*
X146792612Y-113476518D01*
X146756302Y-113356820D01*
X146752488Y-113349684D01*
X146789777Y-113226757D01*
X146804872Y-113073500D01*
X146804872Y-112778500D01*
X146789777Y-112625243D01*
X146745074Y-112477875D01*
X146672479Y-112342060D01*
X146574783Y-112223017D01*
X146455740Y-112125321D01*
X146319925Y-112052726D01*
X146172557Y-112008023D01*
X146019300Y-111992928D01*
X145674300Y-111992928D01*
X145521043Y-112008023D01*
X145412331Y-112041000D01*
X143326544Y-112041000D01*
X143225300Y-112031028D01*
X142880300Y-112031028D01*
X142727043Y-112046123D01*
X142618331Y-112079100D01*
X138598167Y-112079100D01*
X138591379Y-112073529D01*
X138389860Y-111965815D01*
X138368053Y-111959200D01*
X146374122Y-111959200D01*
X147716234Y-113301312D01*
M02*
